<svg xmlns="http://www.w3.org/2000/svg" xmlns:xlink="http://www.w3.org/1999/xlink" width="223.8" height="114" viewBox="0 0 223.8 114">
  <defs>
    <filter id="Rectangle_21" x="0" y="0" width="223.8" height="114" filterUnits="userSpaceOnUse">
      <feOffset input="SourceAlpha"/>
      <feGaussianBlur stdDeviation="7.5" result="blur"/>
      <feFlood flood-opacity="0.161"/>
      <feComposite operator="in" in2="blur"/>
      <feComposite in="SourceGraphic"/>
    </filter>
  </defs>
  <g id="Group_10" data-name="Group 10" transform="translate(-852.5 -499.5)">
    <g id="Group_6" data-name="Group 6" transform="translate(875 522)">
      <g transform="matrix(1, 0, 0, 1, -22.5, -22.5)" filter="url(#Rectangle_21)">
        <rect id="Rectangle_21-2" data-name="Rectangle 21" width="178.8" height="69" rx="5" transform="translate(22.5 22.5)" fill="#f8f8f8"/>
      </g>
    </g>
    <g id="articulate_logo" transform="translate(883.704 541.259)">
      <path id="Path_9" data-name="Path 9" d="M102.2,36.114l-.414.487V34.068H97.6V53.6h4.214V43.5c0-3.849,2.192-5.993,6.187-6.09V33.8c-2.607.049-4.507.8-5.8,2.314" transform="translate(-73.068 -24.81)" fill="#939cbc"/>
      <path id="Path_10" data-name="Path 10" d="M403.7,9.1h4.214V34.946H403.7Z" transform="translate(-304.602 -6.127)" fill="#939cbc"/>
      <path id="Path_11" data-name="Path 11" d="M11.3,36.427A6.242,6.242,0,0,1,17.467,43,6.242,6.242,0,0,1,11.3,49.582c-3.459,0-6.066-2.826-6.066-6.577-.024-3.751,2.607-6.577,6.066-6.577M1,43a10.057,10.057,0,0,0,10.28,10.28,8.649,8.649,0,0,0,6.163-2.7v2.168h4.214V42.98A10.094,10.094,0,0,0,11.28,32.7,10.106,10.106,0,0,0,1,43" transform="translate(0 -23.978)" fill="#939cbc"/>
      <path id="Path_12" data-name="Path 12" d="M199.1,34.9h4.214V54.437H199.1Z" transform="translate(-149.843 -25.642)" fill="#939cbc"/>
      <path id="Path_13" data-name="Path 13" d="M202.252,3.85A2.854,2.854,0,0,0,199.4,1a2.826,2.826,0,1,0,2.85,2.85" transform="translate(-147.952)" fill="#939cbc"/>
      <path id="Path_14" data-name="Path 14" d="M235.88,49.757c-3.459,0-6.066-2.826-6.066-6.577s2.607-6.577,6.066-6.577a5.909,5.909,0,0,1,5.554,3.654h4.409A10.342,10.342,0,0,0,225.6,43.18a10.354,10.354,0,0,0,20.146,3.289h-4.482a5.937,5.937,0,0,1-5.384,3.289" transform="translate(-169.887 -24.129)" fill="#939cbc"/>
      <path id="Path_15" data-name="Path 15" d="M573.634,41.18l.1-.292a5.894,5.894,0,0,1,5.749-4.36,5.965,5.965,0,0,1,5.822,4.36l.1.292Zm5.846-8.38A10.057,10.057,0,0,0,569.2,43.08,10.37,10.37,0,0,0,589,47.294h-4.7a5.832,5.832,0,0,1-4.8,2.363,6.064,6.064,0,0,1-5.944-5.14l-.049-.268h16.3a10.356,10.356,0,0,0,.073-1.169,10.144,10.144,0,0,0-10.4-10.28" transform="translate(-429.786 -24.053)" fill="#939cbc"/>
      <path id="Path_16" data-name="Path 16" d="M432.5,9.1h19.854v3.362H432.5Z" transform="translate(-326.386 -6.127)" fill="#939cbc"/>
      <path id="Path_17" data-name="Path 17" d="M154.914,9.1H150.7V28.637c0,4.044,2.241,6.577,5.846,6.577a30.423,30.423,0,0,0,3.41-.244V31.316a23.066,23.066,0,0,1-2.7.244A2.425,2.425,0,0,1,154.914,29V18.844h5.043V15.385h-5.043V9.1" transform="translate(-113.233 -6.127)" fill="#939cbc"/>
      <path id="Path_18" data-name="Path 18" d="M529.914,28.978V18.82h5.043V15.385h-5.043V9.1H525.7V28.637c0,4.044,2.241,6.577,5.846,6.577,1.291,0,2.85-.195,3.411-.244V31.316a23.069,23.069,0,0,1-2.7.244,2.448,2.448,0,0,1-2.339-2.582" transform="translate(-396.883 -6.127)" fill="#939cbc"/>
      <path id="Path_19" data-name="Path 19" d="M441.18,36.427A6.242,6.242,0,0,1,447.343,43a6.242,6.242,0,0,1-6.163,6.577c-3.459,0-6.066-2.826-6.066-6.577s2.607-6.577,6.066-6.577M430.9,43a10.057,10.057,0,0,0,10.28,10.28,8.649,8.649,0,0,0,6.163-2.7v2.168h4.214V42.98A10.329,10.329,0,0,0,430.9,43" transform="translate(-325.176 -23.978)" fill="#939cbc"/>
      <path id="Path_20" data-name="Path 20" d="M326.623,51.221c-3.873,0-4.434-3.191-4.434-6.577V34.9H318V45.692c0,4.775,2.485,9.232,8.185,9.232a7.168,7.168,0,0,0,5.627-2.68v2.168h4.214V34.9h-4.214v9.647c0,4.531-2.631,6.675-5.189,6.675" transform="translate(-239.779 -25.642)" fill="#939cbc"/>
    </g>
  </g>
</svg>
