<svg xmlns="http://www.w3.org/2000/svg" width="20.2" height="19.7" viewBox="0 0 20.2 19.7">
  <g id="calendar-office" transform="translate(-2.028 -2.15)">
    <path id="Path_210" data-name="Path 210" d="M8.628,2.65a2.1,2.1,0,0,0-2.1,2.1v.4h-2.4a1.6,1.6,0,0,0-1.6,1.6v13a1.6,1.6,0,0,0,1.6,1.6h16a1.6,1.6,0,0,0,1.6-1.6v-13a1.6,1.6,0,0,0-1.6-1.6h-2.4v-.4a2.1,2.1,0,0,0-4.2,0v.4h-2.8v-.4A2.1,2.1,0,0,0,8.628,2.65Zm2.1,3.7h2.8v.4a2.1,2.1,0,1,0,4.2,0v-.4h2.4a.4.4,0,0,1,.4.4v4.4H3.728V6.75a.4.4,0,0,1,.4-.4h2.4v.4a2.1,2.1,0,1,0,4.2,0Zm5.8-.6v-1a.9.9,0,0,0-1.8,0v2a.9.9,0,1,0,1.8,0Zm-7,0v-1a.9.9,0,0,0-1.8,0v2a.9.9,0,1,0,1.8,0Zm-5.8,6.6v7.4a.4.4,0,0,0,.4.4h16a.4.4,0,0,0,.4-.4v-7.4Z" fill="#1e1d1d" stroke="#1e1d1d" stroke-width="1" fill-rule="evenodd"/>
  </g>
</svg>
