<?xml version="1.0" standalone="no"?><!DOCTYPE svg PUBLIC "-//W3C//DTD SVG 1.1//EN" "http://www.w3.org/Graphics/SVG/1.1/DTD/svg11.dtd"><svg t="1592775600087" class="icon" viewBox="0 0 1072 1024" version="1.1" xmlns="http://www.w3.org/2000/svg" p-id="1153" xmlns:xlink="http://www.w3.org/1999/xlink" width="209.375" height="200"><defs><style type="text/css">@font-face { font-weight: 400; font-style: normal; font-family: Inter-Loom; src: url("https://cdn.loom.com/assets/fonts/inter/Inter-UI-Regular.woff2") format("woff2"); }
@font-face { font-weight: 400; font-style: italic; font-family: Inter-Loom; src: url("https://cdn.loom.com/assets/fonts/inter/Inter-UI-Italic.woff2") format("woff2"); }
@font-face { font-weight: 500; font-style: normal; font-family: Inter-Loom; src: url("https://cdn.loom.com/assets/fonts/inter/Inter-UI-Medium.woff2") format("woff2"); }
@font-face { font-weight: 500; font-style: italic; font-family: Inter-Loom; src: url("https://cdn.loom.com/assets/fonts/inter/Inter-UI-MediumItalic.woff2") format("woff2"); }
@font-face { font-weight: 700; font-style: normal; font-family: Inter-Loom; src: url("https://cdn.loom.com/assets/fonts/inter/Inter-UI-Bold.woff2") format("woff2"); }
@font-face { font-weight: 700; font-style: italic; font-family: Inter-Loom; src: url("https://cdn.loom.com/assets/fonts/inter/Inter-UI-BoldItalic.woff2") format("woff2"); }
@font-face { font-weight: 900; font-style: normal; font-family: Inter-Loom; src: url("https://cdn.loom.com/assets/fonts/inter/Inter-UI-Black.woff2") format("woff2"); }
@font-face { font-weight: 900; font-style: italic; font-family: Inter-Loom; src: url("https://cdn.loom.com/assets/fonts/inter/Inter-UI-BlackItalic.woff2") format("woff2"); }
</style></defs><path d="M633.758476 447.926857a49.249524 49.249524 0 1 0 0.048762 98.54781 49.249524 49.249524 0 0 0-0.048762-98.499048M1072.274286 68.998095A68.754286 68.754286 0 0 0 1003.52 0.292571H263.94819a68.754286 68.754286 0 0 0-68.705523 68.754286v68.656762h59.587047V59.879619h757.857524v485.327238H934.765714v59.587048h68.754286a68.754286 68.754286 0 0 0 68.656762-68.754286V68.998095zM439.149714 447.926857a49.249524 49.249524 0 1 0 0 98.54781 49.249524 49.249524 0 0 0 0-98.499048" fill="#000000" p-id="1154"></path><path d="M877.616762 263.606857a68.754286 68.754286 0 0 0-68.754286-68.705524H69.38819a68.754286 68.754286 0 0 0-68.754285 68.754286v467.041524c0 37.888 30.866286 68.705524 68.754285 68.705524h86.991239v181.784381l181.686857-181.784381h470.893714a68.754286 68.754286 0 0 0 68.754286-68.754286V263.655619z m-63.390476 472.405333H311.783619l-92.062476 92.062477v-92.062477H64.024381V258.29181h750.201905v477.72038z" fill="#000000" p-id="1155"></path><path d="M244.49219 447.926857a49.249524 49.249524 0 1 0 0.048762 98.54781 49.249524 49.249524 0 0 0 0-98.499048" fill="#000000" p-id="1156"></path></svg>