<svg width="24" height="24" viewBox="0 0 24 24" fill="none" xmlns="http://www.w3.org/2000/svg"><rect width="24" height="24" fill="none" rx="0" ry="0"></rect><path fill-rule="evenodd" clip-rule="evenodd" d="M21 12C21 16.9706 16.9706 21 12 21C7.02944 21 3 16.9706 3 12C3 7.02944 7.02944 3 12 3C16.9706 3 21 7.02944 21 12ZM11.3 19.769V18.7C11.3 18.3134 11.6134 18 12 18C12.3866 18 12.7 18.3134 12.7 18.7V19.769C16.4493 19.4356 19.4356 16.4493 19.769 12.7H18.7C18.3134 12.7 18 12.3866 18 12C18 11.6134 18.3134 11.3 18.7 11.3H19.769C19.4356 7.55073 16.4493 4.56445 12.7 4.23098V5.3C12.7 5.6866 12.3866 6 12 6C11.6134 6 11.3 5.6866 11.3 5.3V4.23098C7.55073 4.56445 4.56445 7.55073 4.23098 11.3H5.3C5.6866 11.3 6 11.6134 6 12C6 12.3866 5.6866 12.7 5.3 12.7H4.23098C4.56445 16.4493 7.55073 19.4356 11.3 19.769ZM8.25963 9.65493C8.00578 9.44192 7.97267 9.06347 8.18567 8.80963C8.39867 8.55578 8.77713 8.52267 9.03097 8.73567L11.9444 11.1803L15.6538 6.75963C15.8668 6.50578 16.2453 6.47267 16.4991 6.68567C16.753 6.89867 16.7861 7.27713 16.5731 7.53097L12.4593 12.4337L12.4568 12.4316L12.0898 12.8689L8.25963 9.65493Z" fill="#939cbc"></path></svg>