<svg id="DESIGN" xmlns="http://www.w3.org/2000/svg" width="125.169" height="35.664" viewBox="0 0 125.169 35.664">
  <g id="CR-1-LANDING" transform="translate(0 0)">
    <g id="NAV" transform="translate(0 0)">
      <g id="Group-2" transform="translate(0 0)">
        <g id="Logo-intrro-svg-white">
          <path id="Path_14" d="M17.832,0A17.832,17.832,0,1,0,35.664,17.832,17.832,17.832,0,0,0,17.832,0Zm2.424,12.578a1.876,1.876,0,0,1,2.7,0,1.985,1.985,0,0,1,0,2.761,1.876,1.876,0,0,1-2.7,0,1.984,1.984,0,0,1,0-2.765ZM7.339,20.193a1.876,1.876,0,0,1-.456-2.659l7.4-10.205A1.984,1.984,0,0,1,17,6.862a1.876,1.876,0,0,1,.456,2.657l-7.4,10.205a1.984,1.984,0,0,1-2.72.469Zm4.114,4.157a1.984,1.984,0,0,1,0-2.76l4.983-5.1a1.877,1.877,0,0,1,2.7,0,1.985,1.985,0,0,1,0,2.761l-4.983,5.1a1.876,1.876,0,0,1-2.7,0Zm16.884-2.959-10.205,7.4a1.876,1.876,0,0,1-2.657-.456,1.985,1.985,0,0,1,.467-2.721l10.205-7.4a1.877,1.877,0,0,1,2.659.456,1.984,1.984,0,0,1-.472,2.72Z" transform="translate(0 0)" fill="#fff"/>
          <g id="Group_33" transform="translate(43.655 7.749)">
            <path id="Path_15" d="M3.235,0A2.083,2.083,0,1,0,4.692.61,2,2,0,0,0,3.235,0Z" transform="translate(-1.136 0)" fill="#fff" fill-rule="evenodd"/>
            <path id="Path_16" d="M3.212,5.236a1.668,1.668,0,0,0-1.2.467,1.634,1.634,0,0,0-.493,1.226V18.075a1.716,1.716,0,0,0,2.916,1.2,1.668,1.668,0,0,0,.467-1.2V6.929A1.619,1.619,0,0,0,3.209,5.237Z" transform="translate(-1.114 0.306)" fill="#fff" fill-rule="evenodd"/>
            <path id="Path_17" d="M20.723,5.9a6.838,6.838,0,0,0-3.29-.789,6.535,6.535,0,0,0-3.179.778,6.327,6.327,0,0,0-.74.475,1.556,1.556,0,0,0-.393-.656,1.8,1.8,0,0,0-2.422,0,1.635,1.635,0,0,0-.493,1.224V18.1a1.716,1.716,0,0,0,2.918,1.2,1.668,1.668,0,0,0,.467-1.2V11.039a2.355,2.355,0,0,1,.425-1.4,3.156,3.156,0,0,1,1.2-1.007,3.805,3.805,0,0,1,1.719-.382,4.181,4.181,0,0,1,1.857.395A2.881,2.881,0,0,1,20.03,9.819a4.2,4.2,0,0,1,.47,2.12V18.1a1.692,1.692,0,1,0,3.384,0V11.939a7.593,7.593,0,0,0-.841-3.707A5.759,5.759,0,0,0,20.723,5.9Z" transform="translate(-0.606 0.299)" fill="#fff" fill-rule="evenodd"/>
            <path id="Path_18" d="M34.466,16.672h-.852a1.276,1.276,0,0,1-1.031-.524,2.149,2.149,0,0,1-.457-1.416V8.96h1.714a1.61,1.61,0,0,0,1.132-.411,1.4,1.4,0,0,0,.459-1.056,1.441,1.441,0,0,0-.46-1.11,1.61,1.61,0,0,0-1.132-.411H32.124V2.782a1.667,1.667,0,1,0-3.329,0V5.974h-.74a1.613,1.613,0,0,0-1.133.411,1.442,1.442,0,0,0-.459,1.11,1.4,1.4,0,0,0,.459,1.056,1.61,1.61,0,0,0,1.133.411h.74v5.772a5.7,5.7,0,0,0,.623,2.672,4.911,4.911,0,0,0,1.726,1.9,4.532,4.532,0,0,0,2.477.7h.451a2,2,0,0,0,1.333-.449,1.552,1.552,0,0,0,.559-1.217,1.712,1.712,0,0,0-.418-1.179,1.408,1.408,0,0,0-1.08-.491Z" transform="translate(0.343 0.06)" fill="#fff" fill-rule="evenodd"/>
            <path id="Path_19" d="M48.98,5.646a4.456,4.456,0,0,0-2.466-.557,5.978,5.978,0,0,0-2.959.755,6.042,6.042,0,0,0-.879.6,1.471,1.471,0,0,0-.391-.767,1.677,1.677,0,0,0-1.233-.434,1.545,1.545,0,0,0-1.667,1.667V18.1a1.644,1.644,0,0,0,.453,1.233,1.686,1.686,0,0,0,1.215.429,1.644,1.644,0,0,0,1.233-.453,1.683,1.683,0,0,0,.429-1.213V10.785a2.184,2.184,0,0,1,.617-1.613,3.508,3.508,0,0,1,1.808-.912,6.645,6.645,0,0,1,2.7.049,1.905,1.905,0,0,0,.768.028A1.411,1.411,0,0,0,49.294,8a1.356,1.356,0,0,0,.414-.74A1.416,1.416,0,0,0,48.98,5.646Z" transform="translate(1.098 0.297)" fill="#fff" fill-rule="evenodd"/>
            <path id="Path_20" d="M62.255,5.646a4.456,4.456,0,0,0-2.466-.557,5.976,5.976,0,0,0-2.959.755,6.042,6.042,0,0,0-.879.6,1.47,1.47,0,0,0-.391-.767,1.677,1.677,0,0,0-1.233-.434,1.545,1.545,0,0,0-1.667,1.667V18.1a1.644,1.644,0,0,0,.453,1.233,1.686,1.686,0,0,0,1.215.429,1.644,1.644,0,0,0,1.233-.453,1.683,1.683,0,0,0,.429-1.213V10.785a2.184,2.184,0,0,1,.617-1.613,3.507,3.507,0,0,1,1.808-.912,6.645,6.645,0,0,1,2.7.049,1.906,1.906,0,0,0,.768.028A1.408,1.408,0,0,0,62.57,8a1.347,1.347,0,0,0,.414-.74A1.416,1.416,0,0,0,62.255,5.646Z" transform="translate(1.873 0.297)" fill="#fff" fill-rule="evenodd"/>
            <path id="Path_21" d="M78.012,8.689a6.887,6.887,0,0,0-2.6-2.609,8.023,8.023,0,0,0-7.55,0,6.88,6.88,0,0,0-2.6,2.609,8.174,8.174,0,0,0,0,7.623,6.876,6.876,0,0,0,2.6,2.609,8.074,8.074,0,0,0,7.575,0,6.8,6.8,0,0,0,2.59-2.612,8.22,8.22,0,0,0-.014-7.621Zm-6.359,8.093a4,4,0,0,1-2.1-.543,3.9,3.9,0,0,1-1.428-1.5,4.587,4.587,0,0,1-.525-2.231,4.66,4.66,0,0,1,.527-2.245A3.875,3.875,0,0,1,69.557,8.76a4.3,4.3,0,0,1,4.181,0,3.8,3.8,0,0,1,1.412,1.5,4.757,4.757,0,0,1,.515,2.248,4.678,4.678,0,0,1-.514,2.233,3.814,3.814,0,0,1-1.413,1.493,4.005,4.005,0,0,1-2.085.546Z" transform="translate(2.555 0.3)" fill="#fff"/>
          </g>
        </g>
      </g>
    </g>
  </g>
</svg>
