<svg id="Group_35" data-name="Group 35" xmlns="http://www.w3.org/2000/svg" width="198.087" height="43.986" viewBox="0 0 198.087 43.986">
  <path id="Path_142" data-name="Path 142" d="M45.255,60.682,39.976,43.456,57.2,38.176l2.089,6.814L48.878,48.181l3.192,10.412Z" transform="translate(-39.976 -38.176)" fill="#fff"/>
  <path id="Path_143" data-name="Path 143" d="M60.806,115.273l-4.413-14.4,6.814-2.087,2.325,7.588,7.588-2.326,2.089,6.814Z" transform="translate(-48.945 -71.286)" fill="#fff"/>
  <path id="Path_144" data-name="Path 144" d="M113.433,75.68l-2.594-8.467-7.625,2.336-2.087-6.814,14.438-4.424,4.682,15.281Z" transform="translate(-73.383 -49.177)" fill="#fff"/>
  <path id="Path_145" data-name="Path 145" d="M307.6,85.176a4.878,4.878,0,0,1-3.539-1.439,5.436,5.436,0,0,1,0-7.439,5,5,0,0,1,7.029,0,5.391,5.391,0,0,1,.005,7.439,4.852,4.852,0,0,1-3.49,1.444m-.009-13.024a8.105,8.105,0,0,0-5.752,2.2,8.007,8.007,0,0,0,.008,11.34,8.078,8.078,0,0,0,5.755,2.213,7.986,7.986,0,0,0,5.706-2.22,8.063,8.063,0,0,0,.008-11.34,8,8,0,0,0-5.724-2.2M297.528,84.181a4.58,4.58,0,0,1-2.55.822,2.373,2.373,0,0,1-1.822-.712,2.933,2.933,0,0,1-.67-2.08l-.005-7.1,5.161,0,0-2.611-5.161,0,0-4.675-3.157,0,0,4.675-3.249,0,0,2.611,3.249,0,0,7.317a4.994,4.994,0,0,0,5.438,5.553,7.321,7.321,0,0,0,3.734-1.156ZM275.52,85.2A4.745,4.745,0,0,1,272,83.788a5.73,5.73,0,0,1-.005-7.5,4.745,4.745,0,0,1,3.521-1.414,4.815,4.815,0,0,1,3.462,1.439,5.393,5.393,0,0,1,0,7.439,4.818,4.818,0,0,1-3.46,1.444m8.1-12.7-3.158,0v1.731A7.218,7.218,0,0,0,275,72.082a7.133,7.133,0,0,0-5.251,2.25,8.5,8.5,0,0,0-.008,11.431,7.137,7.137,0,0,0,5.269,2.229,7.218,7.218,0,0,0,5.463-2.16v1.731l3.158,0Zm-18.483-.169a6.4,6.4,0,0,0-5.736,3.4l0-3.218-3.158,0,.01,15.059,3.158,0,0-5.313a7.75,7.75,0,0,1,1.454-5,5.137,5.137,0,0,1,4.249-1.808,8.609,8.609,0,0,1,.881.029l.21-3.036a3.718,3.718,0,0,0-1.062-.12M245.277,74.9a4.235,4.235,0,0,1,2.763.939,4.552,4.552,0,0,1,1.519,2.732l-8.865.006a4.182,4.182,0,0,1,1.669-2.7,4.848,4.848,0,0,1,2.914-.973m7.533,4.822a7.791,7.791,0,0,0-2.3-5.479,7.189,7.189,0,0,0-5.239-2.137,7.585,7.585,0,0,0-5.539,2.235,7.728,7.728,0,0,0-2.258,5.755,7.638,7.638,0,0,0,2.266,5.706,7.466,7.466,0,0,0,5.42,2.213,8.154,8.154,0,0,0,4.448-1.2,7.064,7.064,0,0,0,2.806-3.539l-2.824-.606a4.564,4.564,0,0,1-4.432,2.615,4.323,4.323,0,0,1-3.037-1.212,4.976,4.976,0,0,1-1.52-3.248l12.206-.008Zm-24.567-7.6a6.459,6.459,0,0,0-5.221,2.281V72.542l-3.157,0,.01,15.059,3.157,0,0-6.952a6.363,6.363,0,0,1,1.2-4.191,4.072,4.072,0,0,1,3.293-1.429,3.286,3.286,0,0,1,2.6,1.122,4.342,4.342,0,0,1,.989,2.974l.005,8.471,3.189,0-.006-9.109a6.442,6.442,0,0,0-1.673-4.6,5.724,5.724,0,0,0-4.373-1.773M208.9,74.919a4.237,4.237,0,0,1,2.763.939,4.555,4.555,0,0,1,1.52,2.732l-8.865.006a4.182,4.182,0,0,1,1.667-2.7,4.856,4.856,0,0,1,2.914-.973m7.533,4.822a7.781,7.781,0,0,0-2.3-5.479,7.186,7.186,0,0,0-5.238-2.137,7.588,7.588,0,0,0-5.54,2.236,7.732,7.732,0,0,0-2.258,5.755,7.645,7.645,0,0,0,2.266,5.706,7.47,7.47,0,0,0,5.421,2.213,8.144,8.144,0,0,0,4.447-1.2,7.069,7.069,0,0,0,2.807-3.538l-2.824-.606a4.566,4.566,0,0,1-4.432,2.615,4.32,4.32,0,0,1-3.037-1.212,4.97,4.97,0,0,1-1.521-3.248l12.205-.008ZM189.877,84.01a4.889,4.889,0,0,1-3.448-1.273,4.675,4.675,0,0,1,0-6.634,4.922,4.922,0,0,1,3.446-1.262,4.693,4.693,0,0,1,3.3,1.273,4.637,4.637,0,0,1,0,6.6,4.663,4.663,0,0,1-3.294,1.293m7.735-11.452-3.067,0v1.488a6.829,6.829,0,0,0-5.193-1.879,7.267,7.267,0,0,0-5.175,2.1,6.843,6.843,0,0,0-2.2,5.163,6.916,6.916,0,0,0,2.22,5.19,7.222,7.222,0,0,0,5.163,2.122,6.827,6.827,0,0,0,5.19-1.885v.971a4.592,4.592,0,0,1-1.288,3.448,4.718,4.718,0,0,1-3.445,1.262,5.469,5.469,0,0,1-2.809-.636,6.025,6.025,0,0,1-1.959-2.033l-2.58,1.915q1.946,3.611,7.35,3.608a8.236,8.236,0,0,0,5.692-1.886,6.637,6.637,0,0,0,2.106-5.223Z" transform="translate(-117.554 -54.371)" fill="#fff"/>
</svg>
