<svg xmlns="http://www.w3.org/2000/svg" xmlns:xlink="http://www.w3.org/1999/xlink" width="220" height="114" viewBox="0 0 220 114">
  <defs>
    <filter id="Rectangle_22" x="0" y="0" width="220" height="114" filterUnits="userSpaceOnUse">
      <feOffset input="SourceAlpha"/>
      <feGaussianBlur stdDeviation="7.5" result="blur"/>
      <feFlood flood-opacity="0.161"/>
      <feComposite operator="in" in2="blur"/>
      <feComposite in="SourceGraphic"/>
    </filter>
  </defs>
  <g id="Group_38" data-name="Group 38" transform="translate(22.906 22.5)">
    <g transform="matrix(1, 0, 0, 1, -22.91, -22.5)" filter="url(#Rectangle_22)">
      <rect id="Rectangle_22-2" data-name="Rectangle 22" width="175" height="69" rx="5" transform="translate(22.5 22.5)" fill="#f8f8f8"/>
    </g>
    <g id="Airtable_Logo_1_" data-name="Airtable_Logo (1)" transform="translate(7.001 17.26)">
      <path id="Path_146" data-name="Path 146" d="M227,42.087l-2.769-7.465a.351.351,0,0,0-.658,0l-2.769,7.466a.351.351,0,0,0,.329.473h5.538a.351.351,0,0,0,.329-.473m1.28,4.2h-8.755a.351.351,0,0,0-.329.229l-1.724,4.645a.351.351,0,0,1-.329.229h-3.795a.351.351,0,0,1-.326-.481l8.736-21.763a.351.351,0,0,1,.326-.22h3.633a.351.351,0,0,1,.326.22L234.783,50.9a.351.351,0,0,1-.326.482h-3.794a.351.351,0,0,1-.329-.229l-1.724-4.645a.351.351,0,0,0-.329-.229m8.279-9.724h3.245a.351.351,0,0,1,.351.351V51.034a.351.351,0,0,1-.351.351h-3.245a.351.351,0,0,1-.351-.351V36.909a.351.351,0,0,1,.351-.351m15.433,3.436a.351.351,0,0,1-.351.351h-.1a4.738,4.738,0,0,0-3.53,1.155,5.359,5.359,0,0,0-1.123,3.819v5.715a.351.351,0,0,1-.351.351h-3.214a.351.351,0,0,1-.351-.351V36.909a.351.351,0,0,1,.351-.351h3.181a.351.351,0,0,1,.351.351V39.7h.064a5.287,5.287,0,0,1,1.83-2.664,5.019,5.019,0,0,1,3.081-.931h.16v3.885Zm8.874-.131a.351.351,0,0,0-.351.351V46.09a1.877,1.877,0,0,0,.353,1.284,1.6,1.6,0,0,0,1.219.385h.323a.351.351,0,0,1,.351.351v2.957a.351.351,0,0,1-.351.351H261.03a4.589,4.589,0,0,1-3.305-1.107,4.35,4.35,0,0,1-1.156-3.289V40.215a.351.351,0,0,0-.351-.351h-2.026a.351.351,0,0,1-.351-.351v-2.6a.351.351,0,0,1,.351-.351h2.026a.351.351,0,0,0,.351-.351V30.972a.351.351,0,0,1,.351-.351h3.245a.351.351,0,0,1,.351.351v5.235a.351.351,0,0,0,.351.351h2.347a.351.351,0,0,1,.351.351v2.6a.351.351,0,0,1-.351.351h-2.347Zm14.861,7.125a4.664,4.664,0,0,0,0-6.034,4.229,4.229,0,0,0-5.809,0,4.664,4.664,0,0,0,0,6.034,4.229,4.229,0,0,0,5.809,0m-7.494,3.947a6.587,6.587,0,0,1-2.583-2.712,8.939,8.939,0,0,1-.947-4.252,8.94,8.94,0,0,1,.947-4.252,6.591,6.591,0,0,1,2.583-2.712,7.145,7.145,0,0,1,3.594-.931,6.12,6.12,0,0,1,2.969.674,5.167,5.167,0,0,1,1.973,1.894h.064V36.909a.351.351,0,0,1,.351-.351H280.4a.351.351,0,0,1,.351.351V51.034a.351.351,0,0,1-.351.351h-3.213a.351.351,0,0,1-.351-.351V49.3h-.064a5.161,5.161,0,0,1-1.974,1.893,6.118,6.118,0,0,1-2.969.674,7.147,7.147,0,0,1-3.594-.93m25.88-3.947a4.664,4.664,0,0,0,0-6.034,4.228,4.228,0,0,0-5.809,0,4.663,4.663,0,0,0,0,6.034,4.228,4.228,0,0,0,5.809,0m-4.878,4.2a5.153,5.153,0,0,1-1.974-1.893H287.2v1.735a.351.351,0,0,1-.351.351H283.6a.351.351,0,0,1-.351-.351V29.271a.351.351,0,0,1,.351-.351h3.245a.351.351,0,0,1,.351.351v9.373h.064a5.157,5.157,0,0,1,1.974-1.893,6.114,6.114,0,0,1,2.969-.674,7.146,7.146,0,0,1,3.594.931,6.6,6.6,0,0,1,2.583,2.712,8.951,8.951,0,0,1,.947,4.253,8.949,8.949,0,0,1-.947,4.252,6.588,6.588,0,0,1-2.583,2.712,7.146,7.146,0,0,1-3.594.931,6.114,6.114,0,0,1-2.969-.674m15.561.193h-3.245a.351.351,0,0,1-.351-.351V29.272a.351.351,0,0,1,.351-.351H304.8a.351.351,0,0,1,.351.351V51.034a.351.351,0,0,1-.351.351m7.656-11.393a3.13,3.13,0,0,0-1.09,1.818.351.351,0,0,0,.343.428h6.177a.351.351,0,0,0,.348-.4,2.9,2.9,0,0,0-.965-1.795,3.54,3.54,0,0,0-2.391-.786,3.823,3.823,0,0,0-2.423.738m7.911-1.845A8.369,8.369,0,0,1,322.259,44v.419a.351.351,0,0,1-.351.351H311.589a.353.353,0,0,0-.347.413,3.606,3.606,0,0,0,1.245,2.235,4.34,4.34,0,0,0,2.872.947,6.018,6.018,0,0,0,4.141-1.746.349.349,0,0,1,.521.061l1.578,2.265a.351.351,0,0,1-.054.464,11.621,11.621,0,0,1-2.56,1.7,8.165,8.165,0,0,1-3.626.754,8.659,8.659,0,0,1-4.2-.979,6.924,6.924,0,0,1-2.792-2.76A8.313,8.313,0,0,1,307.368,44a8.636,8.636,0,0,1,.963-4.14,6.917,6.917,0,0,1,2.7-2.792,7.984,7.984,0,0,1,4.044-.995,6.817,6.817,0,0,1,5.3,2.07m-79.784-6.811a2.4,2.4,0,1,1-2.4-2.4,2.4,2.4,0,0,1,2.4,2.4" transform="translate(-163.167 -22.154)" fill="rgba(147,156,188,0.6)"/>
      <path id="Path_147" data-name="Path 147" d="M26.381.436,10.949,6.821a1.034,1.034,0,0,0,.014,1.917l15.5,6.145a5.75,5.75,0,0,0,4.239,0L46.2,8.737a1.034,1.034,0,0,0,.014-1.916L30.778.435a5.75,5.75,0,0,0-4.4,0" transform="translate(-7.898 0.002)" fill="rgba(147,156,188,0.6)"/>
      <path id="Path_148" data-name="Path 148" d="M94.273,52.627V67.978a1.034,1.034,0,0,0,1.415.961l17.268-6.7a1.034,1.034,0,0,0,.653-.961V45.924a1.034,1.034,0,0,0-1.415-.961l-17.268,6.7a1.034,1.034,0,0,0-.653.961" transform="translate(-72.217 -34.387)" fill="rgba(147,156,188,0.6)"/>
      <path id="Path_149" data-name="Path 149" d="M18.024,53.632,12.9,56.106l-.52.251L1.561,61.541A1.1,1.1,0,0,1,0,60.61V46.2a.963.963,0,0,1,.331-.693,1.175,1.175,0,0,1,.262-.2,1.1,1.1,0,0,1,.941-.073l16.4,6.5a1.035,1.035,0,0,1,.086,1.892" transform="translate(0 -34.6)" fill="rgba(147,156,188,0.6)"/>
      <path id="Path_150" data-name="Path 150" d="M19.107,53.632l-5.125,2.474L1.414,45.509a1.175,1.175,0,0,1,.262-.2,1.1,1.1,0,0,1,.941-.073l16.4,6.5a1.035,1.035,0,0,1,.086,1.892" transform="translate(-1.083 -34.6)" fill="rgba(147,156,188,0.6)"/>
    </g>
  </g>
</svg>
