<svg xmlns="http://www.w3.org/2000/svg" xmlns:xlink="http://www.w3.org/1999/xlink" width="216" height="114" viewBox="0 0 216 114">
  <defs>
    <filter id="Rectangle_20" x="0" y="0" width="216" height="114" filterUnits="userSpaceOnUse">
      <feOffset input="SourceAlpha"/>
      <feGaussianBlur stdDeviation="7.5" result="blur"/>
      <feFlood flood-opacity="0.161"/>
      <feComposite operator="in" in2="blur"/>
      <feComposite in="SourceGraphic"/>
    </filter>
  </defs>
  <g id="Group_40" data-name="Group 40" transform="translate(22.729 22.5)">
    <g transform="matrix(1, 0, 0, 1, -22.73, -22.5)" filter="url(#Rectangle_20)">
      <rect id="Rectangle_20-2" data-name="Rectangle 20" width="171" height="69" rx="5" transform="translate(22.5 22.5)" fill="#f8f8f8"/>
    </g>
    <g id="Shopify_logo_2018" transform="translate(10.932 12.882)">
      <path id="Path_151" data-name="Path 151" d="M32.454,316.913a.368.368,0,0,0-.371-.322c-.148,0-3.389-.247-3.389-.247s-2.251-2.251-2.523-2.474a1.038,1.038,0,0,0-.915-.124c-.025,0-.495.148-1.262.4-.767-2.2-2.078-4.205-4.428-4.205h-.223a2.876,2.876,0,0,0-2.177-1.237c-5.442,0-8.064,6.8-8.881,10.266-2.127.668-3.636,1.113-3.81,1.187-1.187.371-1.212.4-1.361,1.509C2.992,322.5-.1,346.424-.1,346.424l24.069,4.5,13.061-2.82C37.056,348.057,32.479,317.135,32.454,316.913Zm-9.8-2.424c-.594.173-1.311.4-2.028.643v-.445a9.5,9.5,0,0,0-.495-3.29c1.237.148,2,1.509,2.523,3.092Zm-4.032-2.82a10.362,10.362,0,0,1,.544,3.661v.247c-1.336.421-2.746.841-4.205,1.311C15.781,313.771,17.34,312.237,18.626,311.668Zm-1.583-1.534a1.182,1.182,0,0,1,.693.247c-1.756.816-3.612,2.87-4.379,7.025-1.163.371-2.276.693-3.34,1.039C10.908,315.28,13.134,310.135,17.043,310.135Z" transform="translate(0.1 -308.7)" fill="rgba(147,156,188,0.6)"/>
      <path id="Path_152" data-name="Path 152" d="M105.54,331.669c-.148,0-3.389-.247-3.389-.247s-2.251-2.251-2.523-2.474a.479.479,0,0,0-.322-.148L97.5,366.054l13.061-2.82s-4.576-30.971-4.6-31.194A.669.669,0,0,0,105.54,331.669Z" transform="translate(-73.356 -323.828)" fill="rgba(147,156,188,0.6)"/>
      <path id="Path_153" data-name="Path 153" d="M37.027,367.716l-1.583,4.774a7.44,7.44,0,0,0-3.142-.767c-2.548,0-2.672,1.608-2.672,2,0,2.177,5.69,3.018,5.69,8.139,0,4.032-2.548,6.63-5.986,6.63a8.241,8.241,0,0,1-6.234-2.573l1.113-3.661s2.177,1.88,4.007,1.88a1.625,1.625,0,0,0,1.707-1.633c0-2.845-4.651-2.969-4.651-7.669,0-3.933,2.82-7.743,8.534-7.743A6.605,6.605,0,0,1,37.027,367.716Z" transform="translate(-17.361 -352.651)" fill="rgba(147,156,188,0.6)"/>
      <path id="Path_154" data-name="Path 154" d="M183.376,358.334c-1.311-.693-1.979-1.311-1.979-2.127,0-1.039.94-1.707,2.4-1.707a8.674,8.674,0,0,1,3.216.693l1.187-3.636s-1.088-.841-4.3-.841c-4.477,0-7.594,2.573-7.594,6.184,0,2.053,1.46,3.612,3.389,4.725,1.583.866,2.127,1.509,2.127,2.449,0,.965-.792,1.756-2.251,1.756a10.114,10.114,0,0,1-4.205-1.113l-1.262,3.636a9.654,9.654,0,0,0,5.046,1.262c4.6,0,7.941-2.276,7.941-6.357C187.038,361.03,185.38,359.5,183.376,358.334Zm18.355-7.669a6.9,6.9,0,0,0-5.417,2.721l-.049-.025,1.979-10.291h-5.121l-5,26.222h5.121l1.707-8.955c.668-3.389,2.424-5.492,4.057-5.492,1.163,0,1.608.792,1.608,1.9a10.147,10.147,0,0,1-.223,2.276l-1.93,10.266h5.121l2-10.588a19.125,19.125,0,0,0,.371-3.364c-.025-2.944-1.534-4.675-4.23-4.675Zm15.807,0c-6.184,0-10.266,5.566-10.266,11.775,0,3.958,2.449,7.174,7.05,7.174,6.061,0,10.142-5.417,10.142-11.775C224.49,354.153,222.363,350.665,217.539,350.665Zm-2.523,15.04c-1.756,0-2.474-1.484-2.474-3.364,0-2.944,1.509-7.718,4.3-7.718,1.806,0,2.424,1.583,2.424,3.092C219.27,360.857,217.712,365.706,215.016,365.706Zm22.585-15.04a6.985,6.985,0,0,0-5.418,3.067h-.049l.3-2.746h-4.552c-.223,1.855-.643,4.7-1.039,6.8L223.3,376.565h5.121l1.435-7.594h.124a6,6,0,0,0,2.993.668c6.036,0,9.969-6.184,9.969-12.418C242.919,353.758,241.361,350.665,237.6,350.665Zm-4.9,15.09a3.229,3.229,0,0,1-2.127-.767l.841-4.774c.594-3.216,2.276-5.318,4.057-5.318,1.583,0,2.053,1.459,2.053,2.82C237.551,361.03,235.572,365.755,232.7,365.755Zm17.539-22.437a2.94,2.94,0,0,0-2.944,2.968,2.379,2.379,0,0,0,2.424,2.573h.049a2.875,2.875,0,0,0,2.993-2.969A2.4,2.4,0,0,0,250.242,343.318Zm-7.174,25.949h5.121l3.463-18.207h-5.145m18.207-.025h-3.562l.173-.841c.3-1.756,1.336-3.29,3.067-3.29a5.093,5.093,0,0,1,1.633.272l.99-4.032a6.653,6.653,0,0,0-2.8-.445,7.681,7.681,0,0,0-5.022,1.707,9.589,9.589,0,0,0-2.968,5.813l-.148.841h-2.4l-.767,3.884h2.4l-2.721,14.348h5.121l2.721-14.348h3.537Zm12.344.025s-3.216,8.089-4.626,12.517h-.049c-.1-1.435-1.262-12.517-1.262-12.517h-5.393l3.092,16.673a1.16,1.16,0,0,1-.124.841,8.731,8.731,0,0,1-2.8,3.092,11.476,11.476,0,0,1-2.919,1.459l1.435,4.354a11.71,11.71,0,0,0,5.022-2.8c2.325-2.177,4.5-5.566,6.729-10.167l6.259-13.482h-5.368Z" transform="translate(-131.007 -334.289)" fill="rgba(147,156,188,0.6)"/>
    </g>
  </g>
</svg>
