<svg xmlns="http://www.w3.org/2000/svg" xmlns:xlink="http://www.w3.org/1999/xlink" width="216" height="114" viewBox="0 0 216 114">
  <defs>
    <filter id="Rectangle_20" x="0" y="0" width="216" height="114" filterUnits="userSpaceOnUse">
      <feOffset input="SourceAlpha"/>
      <feGaussianBlur stdDeviation="7.5" result="blur"/>
      <feFlood flood-opacity="0.161"/>
      <feComposite operator="in" in2="blur"/>
      <feComposite in="SourceGraphic"/>
    </filter>
  </defs>
  <g id="Group_158" data-name="Group 158" transform="translate(-1156.5 -2355.5)">
    <g id="Group_157" data-name="Group 157" transform="translate(1179.229 2378)">
      <g transform="matrix(1, 0, 0, 1, -22.73, -22.5)" filter="url(#Rectangle_20)">
        <rect id="Rectangle_20-2" data-name="Rectangle 20" width="171" height="69" rx="5" transform="translate(22.5 22.5)" fill="#f8f8f8"/>
      </g>
    </g>
    <g id="intercom-vector-logo" transform="translate(1175.6 2149.2)">
      <path id="Path_212" data-name="Path 212" d="M43.958,247.8h-20.2a3.334,3.334,0,0,0-3.358,3.322v19.985a3.345,3.345,0,0,0,3.358,3.322H43.94a3.334,3.334,0,0,0,3.358-3.322V251.14A3.322,3.322,0,0,0,43.958,247.8Zm-6.518,4.884a.9.9,0,0,1,1.8,0v11.869a.9.9,0,0,1-1.8,0Zm-4.471-.449a.9.9,0,0,1,1.8,0v12.874a.9.9,0,0,1-1.8,0Zm-4.489.449a.9.9,0,0,1,1.8,0v11.869a.9.9,0,0,1-1.8,0Zm-4.489,1.778a.9.9,0,0,1,1.8,0v7.99a.9.9,0,0,1-1.8,0ZM43.419,268c-.144.126-3.465,2.873-9.552,2.873s-9.409-2.765-9.552-2.873a.891.891,0,0,1,1.167-1.347,13.876,13.876,0,0,0,8.385,2.46c5.441,0,8.367-2.424,8.385-2.442a.9.9,0,0,1,1.257.09A.864.864,0,0,1,43.419,268Zm.305-5.548a.9.9,0,0,1-1.8,0v-7.99a.9.9,0,0,1,1.8,0Z" transform="translate(8 2)" fill="#bbc0d4"/>
      <path id="Path_213" data-name="Path 213" d="M221.271,306.191a.986.986,0,0,1-1.971,0v-9.316a.986.986,0,0,1,1.971,0Z" transform="translate(-156.844 -37.938)" fill="#bbc0d4" stroke="#bbc0d4" stroke-width="0.2"/>
      <path id="Path_214" data-name="Path 214" d="M254.221,296.8v8.514c0,1.148-.607,1.8-1.6,1.8h-.087c-.932,0-1.365-.542-1.776-1.321l-1.993-3.856-1.755-3.986.043,3.856.022,4.311a.986.986,0,0,1-1.971,0V297.6a1.623,1.623,0,0,1,1.69-1.8h.087c1,0,1.408.542,1.8,1.322l1.95,3.835,1.668,3.726-.043-3.575-.022-4.311a.963.963,0,0,1,1-.975A.976.976,0,0,1,254.221,296.8Z" transform="translate(-177.054 -37.86)" fill="#bbc0d4" stroke="#bbc0d4" stroke-width="0.2"/>
      <path id="Path_215" data-name="Path 215" d="M304.329,306.269a.986.986,0,0,1-1.971,0v-8.427H299.91a.921.921,0,0,1,0-1.841h6.868a.921.921,0,0,1,0,1.841h-2.448Z" transform="translate(-219.277 -38.016)" fill="#bbc0d4" stroke="#bbc0d4" stroke-width="0.2"/>
      <path id="Path_216" data-name="Path 216" d="M350.99,305.706v-8.752a1.136,1.136,0,0,1,1.3-1.257h5.676a.907.907,0,0,1,.91.932.888.888,0,0,1-.91.91H352.94v2.708h4.419a.888.888,0,1,1,0,1.776H352.94v3.12h5a.907.907,0,0,1,.91.932.888.888,0,0,1-.91.91h-5.719A1.1,1.1,0,0,1,350.99,305.706Z" transform="translate(-260.002 -37.779)" fill="#bbc0d4" stroke="#bbc0d4" stroke-width="0.2"/>
      <path id="Path_217" data-name="Path 217" d="M409.959,305.806a.951.951,0,0,1-.455,1.321,1.047,1.047,0,0,1-1.387-.39l-2.188-4.051h-2.08l.022,3.445a.986.986,0,0,1-1.971,0v-9.077a1.136,1.136,0,0,1,1.3-1.257h3.7a3.276,3.276,0,0,1,3.64,3.38,3.036,3.036,0,0,1-2.578,3.141Zm-6.131-4.9h3.12a1.492,1.492,0,0,0,1.6-1.646,1.513,1.513,0,0,0-1.625-1.625h-3.1v3.271Z" transform="translate(-299.885 -37.857)" fill="#bbc0d4" stroke="#bbc0d4" stroke-width="0.2"/>
      <path id="Path_218" data-name="Path 218" d="M454.412,305.616a6.122,6.122,0,0,1-1.711-4.788c0-2.1.52-3.726,1.69-4.766A4.534,4.534,0,0,1,457.51,295a4.332,4.332,0,0,1,2.925.888,4.125,4.125,0,0,1,1.365,2.21.936.936,0,0,1-.823,1.148,1.073,1.073,0,0,1-1.192-.78,2.756,2.756,0,0,0-.737-1.126,2.216,2.216,0,0,0-1.581-.52,2.335,2.335,0,0,0-1.776.672,4.692,4.692,0,0,0-.953,3.336,4.626,4.626,0,0,0,.953,3.336,2.4,2.4,0,0,0,1.755.672,2.326,2.326,0,0,0,2.318-1.452,1.02,1.02,0,0,1,1.192-.715.943.943,0,0,1,.715,1.192,4.021,4.021,0,0,1-1.43,2.036,4.546,4.546,0,0,1-2.751.78A4.459,4.459,0,0,1,454.412,305.616Z" transform="translate(-339.679 -37.233)" fill="#bbc0d4" stroke="#bbc0d4" stroke-width="0.2"/>
      <path id="Path_219" data-name="Path 219" d="M504.9,300.828c0-3.531,1.451-5.828,4.874-5.828,3.38,0,4.853,2.231,4.853,5.828,0,3.64-1.473,5.828-4.853,5.828C506.33,306.655,504.9,304.467,504.9,300.828Zm7.712,0c0-2.686-.975-3.986-2.86-3.986-1.842,0-2.816,1.3-2.816,3.986s.953,3.986,2.816,3.986S512.612,303.514,512.612,300.828Z" transform="translate(-380.57 -37.233)" fill="#bbc0d4" stroke="#bbc0d4" stroke-width="0.2"/>
      <path id="Path_220" data-name="Path 220" d="M576.845,306.347a.986.986,0,0,1-1.971,0v-4.225l.043-4.116-1.365,4.181-1.386,4.116a1.409,1.409,0,0,1-2.708,0l-1.43-4.095-1.3-4.116.043,4.051v4.225a.986.986,0,0,1-1.971,0v-8.427a1.628,1.628,0,0,1,1.733-1.841,1.906,1.906,0,0,1,1.95,1.56l1.452,4.311.888,2.925.888-2.925,1.452-4.311a1.891,1.891,0,0,1,1.95-1.56,1.612,1.612,0,0,1,1.711,1.841Z" transform="translate(-427.493 -38.095)" fill="#bbc0d4" stroke="#bbc0d4" stroke-width="0.2"/>
    </g>
  </g>
</svg>
