<svg xmlns="http://www.w3.org/2000/svg" xmlns:xlink="http://www.w3.org/1999/xlink" width="220" height="114" viewBox="0 0 220 114">
  <defs>
    <filter id="Rectangle_22" x="0" y="0" width="220" height="114" filterUnits="userSpaceOnUse">
      <feOffset input="SourceAlpha"/>
      <feGaussianBlur stdDeviation="7.5" result="blur"/>
      <feFlood flood-opacity="0.161"/>
      <feComposite operator="in" in2="blur"/>
      <feComposite in="SourceGraphic"/>
    </filter>
  </defs>
  <g id="Group_154" data-name="Group 154" transform="translate(22.906 22.5)">
    <g transform="matrix(1, 0, 0, 1, -22.91, -22.5)" filter="url(#Rectangle_22)">
      <rect id="Rectangle_22-2" data-name="Rectangle 22" width="175" height="69" rx="5" transform="translate(22.5 22.5)" fill="#f8f8f8"/>
    </g>
    <g id="Airtable_Logo_1_" data-name="Airtable_Logo (1)" transform="translate(31.001 22.26)">
      <path id="Path_146" data-name="Path 146" d="M222.879,38.209l-1.954-5.266a.248.248,0,0,0-.464,0l-1.953,5.267a.248.248,0,0,0,.232.334h3.907a.248.248,0,0,0,.232-.334m.9,2.96H217.6a.248.248,0,0,0-.232.161l-1.216,3.277a.248.248,0,0,1-.232.161h-2.677a.248.248,0,0,1-.23-.34l6.163-15.353a.248.248,0,0,1,.23-.155h2.563a.248.248,0,0,1,.23.155l6.163,15.353a.248.248,0,0,1-.23.34h-2.676a.248.248,0,0,1-.232-.162l-1.216-3.277a.248.248,0,0,0-.232-.161m5.841-6.86h2.29a.248.248,0,0,1,.248.248v9.965a.248.248,0,0,1-.248.248h-2.29a.248.248,0,0,1-.248-.248V34.556a.248.248,0,0,1,.248-.248m10.888,2.424a.248.248,0,0,1-.248.248h-.069a3.343,3.343,0,0,0-2.491.815,3.781,3.781,0,0,0-.792,2.694v4.032a.248.248,0,0,1-.248.248h-2.267a.248.248,0,0,1-.248-.248V34.556a.248.248,0,0,1,.248-.248h2.244a.248.248,0,0,1,.248.248v1.971h.045a3.73,3.73,0,0,1,1.291-1.879,3.54,3.54,0,0,1,2.173-.657h.113v2.741Zm6.26-.092a.248.248,0,0,0-.248.248v4.145a1.324,1.324,0,0,0,.249.906,1.13,1.13,0,0,0,.86.272h.228a.248.248,0,0,1,.248.248v2.086a.248.248,0,0,1-.248.248h-.975a3.238,3.238,0,0,1-2.332-.781,3.069,3.069,0,0,1-.815-2.321v-4.8a.248.248,0,0,0-.248-.248H242.06a.248.248,0,0,1-.248-.248V34.556a.248.248,0,0,1,.248-.248h1.429a.248.248,0,0,0,.248-.248V30.368a.248.248,0,0,1,.248-.248h2.29a.248.248,0,0,1,.248.248v3.693a.248.248,0,0,0,.248.248h1.656a.248.248,0,0,1,.248.248v1.837a.248.248,0,0,1-.248.248h-1.655Zm10.484,5.026a3.29,3.29,0,0,0,0-4.257,2.983,2.983,0,0,0-4.1,0,3.29,3.29,0,0,0,0,4.257,2.983,2.983,0,0,0,4.1,0m-5.287,2.785a4.647,4.647,0,0,1-1.822-1.913,7.07,7.07,0,0,1,0-6,4.65,4.65,0,0,1,1.822-1.913,5.04,5.04,0,0,1,2.536-.657,4.318,4.318,0,0,1,2.095.475,3.645,3.645,0,0,1,1.392,1.336h.045V34.556a.248.248,0,0,1,.248-.248h2.267a.248.248,0,0,1,.248.248v9.965a.247.247,0,0,1-.248.248h-2.267a.248.248,0,0,1-.248-.248V43.3h-.045a3.642,3.642,0,0,1-1.392,1.336,4.316,4.316,0,0,1-2.094.475,5.042,5.042,0,0,1-2.536-.656m18.258-2.785a3.29,3.29,0,0,0,0-4.257,2.983,2.983,0,0,0-4.1,0,3.29,3.29,0,0,0,0,4.257,2.983,2.983,0,0,0,4.1,0m-3.441,2.966a3.636,3.636,0,0,1-1.392-1.336h-.045v1.224a.248.248,0,0,1-.248.248h-2.29a.248.248,0,0,1-.248-.248V29.168a.248.248,0,0,1,.248-.248h2.29a.248.248,0,0,1,.248.248V35.78h.045a3.638,3.638,0,0,1,1.392-1.336,4.313,4.313,0,0,1,2.094-.476,5.041,5.041,0,0,1,2.536.657,4.653,4.653,0,0,1,1.822,1.913,7.07,7.07,0,0,1,0,6,4.648,4.648,0,0,1-1.822,1.913,5.042,5.042,0,0,1-2.536.657,4.313,4.313,0,0,1-2.094-.476m10.978.136h-2.29a.248.248,0,0,1-.248-.248V29.168a.248.248,0,0,1,.248-.248h2.29a.248.248,0,0,1,.248.248V44.521a.248.248,0,0,1-.248.248m5.4-8.037a2.208,2.208,0,0,0-.769,1.283.248.248,0,0,0,.242.3h4.357a.248.248,0,0,0,.246-.285,2.048,2.048,0,0,0-.681-1.266,2.5,2.5,0,0,0-1.687-.555,2.7,2.7,0,0,0-1.709.521m5.581-1.3a5.9,5.9,0,0,1,1.336,4.132v.3a.248.248,0,0,1-.248.248h-7.279a.249.249,0,0,0-.245.291,2.544,2.544,0,0,0,.878,1.576,3.061,3.061,0,0,0,2.026.668,4.245,4.245,0,0,0,2.922-1.232.246.246,0,0,1,.368.043l1.113,1.6a.248.248,0,0,1-.038.327,8.2,8.2,0,0,1-1.806,1.2,5.761,5.761,0,0,1-2.558.532,6.109,6.109,0,0,1-2.966-.691,4.885,4.885,0,0,1-1.97-1.947,5.864,5.864,0,0,1-.7-2.909,6.093,6.093,0,0,1,.679-2.921,4.88,4.88,0,0,1,1.9-1.97,5.632,5.632,0,0,1,2.853-.7,4.809,4.809,0,0,1,3.736,1.46m-56.286-4.8a1.691,1.691,0,1,1-1.691-1.691,1.691,1.691,0,0,1,1.691,1.691" transform="translate(-177.844 -24.146)" fill="rgba(147,156,188,0.6)"/>
      <path id="Path_147" data-name="Path 147" d="M21.648.307l-10.887,4.5a.729.729,0,0,0,.01,1.352L21.7,10.5a4.056,4.056,0,0,0,2.991,0L35.627,6.164a.729.729,0,0,0,.01-1.352L24.75.307a4.057,4.057,0,0,0-3.1,0" transform="translate(-8.609 0.002)" fill="rgba(147,156,188,0.6)"/>
      <path id="Path_148" data-name="Path 148" d="M94.273,50.348v10.83a.729.729,0,0,0,1,.678l12.182-4.728a.729.729,0,0,0,.46-.678V45.62a.729.729,0,0,0-1-.678L94.734,49.67a.729.729,0,0,0-.46.678" transform="translate(-78.713 -37.48)" fill="rgba(147,156,188,0.6)"/>
      <path id="Path_149" data-name="Path 149" d="M12.715,51.139,9.1,52.884l-.367.177L1.1,56.718A.773.773,0,0,1,0,56.062V45.9a.68.68,0,0,1,.233-.489.829.829,0,0,1,.185-.139.778.778,0,0,1,.664-.051L12.655,49.8a.73.73,0,0,1,.061,1.335" transform="translate(0 -37.712)" fill="rgba(147,156,188,0.6)"/>
      <path id="Path_150" data-name="Path 150" d="M13.9,51.139l-3.615,1.746L1.414,45.408A.829.829,0,0,1,1.6,45.27a.778.778,0,0,1,.664-.051L13.835,49.8a.73.73,0,0,1,.061,1.335" transform="translate(-1.181 -37.712)" fill="rgba(147,156,188,0.6)"/>
    </g>
  </g>
</svg>
