<svg xmlns="http://www.w3.org/2000/svg" xmlns:xlink="http://www.w3.org/1999/xlink" width="632.251" height="558.828" viewBox="0 0 632.251 558.828">
  <defs>
    <filter id="Path_177" x="470.778" y="119.428" width="161.473" height="161.473" filterUnits="userSpaceOnUse">
      <feOffset input="SourceAlpha"/>
      <feGaussianBlur stdDeviation="7.5" result="blur"/>
      <feFlood flood-opacity="0.161"/>
      <feComposite operator="in" in2="blur"/>
      <feComposite in="SourceGraphic"/>
    </filter>
    <filter id="Path_177-2" x="93.697" y="0" width="161.473" height="161.473" filterUnits="userSpaceOnUse">
      <feOffset input="SourceAlpha"/>
      <feGaussianBlur stdDeviation="7.5" result="blur-2"/>
      <feFlood flood-opacity="0.161"/>
      <feComposite operator="in" in2="blur-2"/>
      <feComposite in="SourceGraphic"/>
    </filter>
    <filter id="Path_177-3" x="465.618" y="397.355" width="161.473" height="161.473" filterUnits="userSpaceOnUse">
      <feOffset input="SourceAlpha"/>
      <feGaussianBlur stdDeviation="7.5" result="blur-3"/>
      <feFlood flood-opacity="0.161"/>
      <feComposite operator="in" in2="blur-3"/>
      <feComposite in="SourceGraphic"/>
    </filter>
    <filter id="Path_177-4" x="93.697" y="235.169" width="161.473" height="161.473" filterUnits="userSpaceOnUse">
      <feOffset input="SourceAlpha"/>
      <feGaussianBlur stdDeviation="7.5" result="blur-4"/>
      <feFlood flood-opacity="0.161"/>
      <feComposite operator="in" in2="blur-4"/>
      <feComposite in="SourceGraphic"/>
    </filter>
  </defs>
  <g id="Group_52" data-name="Group 52" transform="translate(-1893 -1915.653)">
    <path id="Path_186" data-name="Path 186" d="M350.383,621.857a7.191,7.191,0,1,1-7.191-7.191A7.191,7.191,0,0,1,350.383,621.857Z" transform="translate(1647.363 1597.974)" fill="#000229" fill-rule="evenodd"/>
    <g id="Group_47" data-name="Group 47" transform="translate(2386.278 2057.581)">
      <g id="Group_41" data-name="Group 41" transform="translate(0 0)">
        <g transform="matrix(1, 0, 0, 1, -493.28, -141.93)" filter="url(#Path_177)">
          <path id="Path_177-5" data-name="Path 177" d="M519.882,389.626H435.059A15.672,15.672,0,0,1,419.234,373.8V288.978a15.672,15.672,0,0,1,15.825-15.825h84.822a15.672,15.672,0,0,1,15.825,15.825V373.8A15.672,15.672,0,0,1,519.882,389.626Z" transform="translate(74.04 -131.23)" fill="#fff"/>
        </g>
        <path id="Path_178" data-name="Path 178" d="M544.914,442.553c-.974,0-2.435-.974-2.435-1.948a3.289,3.289,0,0,1,1.948-2.923,40.342,40.342,0,0,0,20.944-8.768c.974-.974,2.435-.487,3.41.487s.487,2.435-.487,3.409A43.829,43.829,0,0,1,544.914,442.553Zm-23.867-2.922h-.974a47.9,47.9,0,0,1-20.458-15.1c-.974-.974-.487-2.435.487-3.409s2.435-.487,3.41.487a47.11,47.11,0,0,0,18.509,13.639,2.17,2.17,0,0,1,1.461,2.922A2.679,2.679,0,0,1,521.047,439.631Zm61.372-24.842h-.974a2.515,2.515,0,0,1-1.461-3.409,48.487,48.487,0,0,0,3.9-18.509v-3.9a2.435,2.435,0,1,1,4.87,0v4.384a48.226,48.226,0,0,1-4.383,20.457A2.531,2.531,0,0,1,582.419,414.79Zm-91.084-11.2a3.237,3.237,0,0,1-2.435-1.948,53.656,53.656,0,0,1-.974-8.768,51.762,51.762,0,0,1,6.332-24.354,2.507,2.507,0,1,1,4.384,2.435,43.465,43.465,0,0,0-5.845,21.918,41.892,41.892,0,0,0,.487,7.794c.974,1.461,0,2.435-1.949,2.922Zm86.7-35.069a2.532,2.532,0,0,1-1.949-.975,46.175,46.175,0,0,0-17.047-15.1,2.507,2.507,0,1,1,2.435-4.384,52.111,52.111,0,0,1,19,16.561c.975.975.487,2.436-.487,3.41C579.01,368.03,578.523,368.518,578.036,368.518Zm-64.781-14.125a2.53,2.53,0,0,1-1.948-.975,2.567,2.567,0,0,1,.974-3.409c7.306-4.384,15.587-7.306,24.354-7.306a2.436,2.436,0,0,1,0,4.871,44.543,44.543,0,0,0-21.918,6.819Z" transform="translate(-480.147 -334.301)" fill="#939cbc"/>
      </g>
      <path id="Zapier_logo_1_" data-name="Zapier_logo (1)" d="M311.07,30.335a17.988,17.988,0,0,1-1.155,6.343,18.01,18.01,0,0,1-6.343,1.154h-.026a18,18,0,0,1-6.346-1.155,17.968,17.968,0,0,1-1.154-6.343v-.028a17.987,17.987,0,0,1,1.152-6.343,17.952,17.952,0,0,1,6.345-1.154h.025a17.922,17.922,0,0,1,6.343,1.154,17.957,17.957,0,0,1,1.154,6.343v.028h0Zm22.113-5.022H315.648l12.4-12.4a30.163,30.163,0,0,0-7.081-7.08l-12.4,12.4V.7a30.185,30.185,0,0,0-4.99-.418h-.032A30.09,30.09,0,0,0,298.553.7V18.234l-12.4-12.4a30,30,0,0,0-3.832,3.243l-.006.006a30.227,30.227,0,0,0-3.241,3.832l12.4,12.4H273.935s-.417,3.294-.417,5v.021a30.046,30.046,0,0,0,.418,5h17.539l-12.4,12.4a30.254,30.254,0,0,0,7.082,7.082l12.4-12.4V59.945a30.318,30.318,0,0,0,4.984.417h.043a30.31,30.31,0,0,0,4.984-.417V42.409l12.4,12.4a30.276,30.276,0,0,0,3.835-3.243h0a30.335,30.335,0,0,0,3.24-3.835l-12.4-12.4h17.539a30.153,30.153,0,0,0,.415-4.986V30.3a30.194,30.194,0,0,0-.415-4.984v0Z" transform="translate(-245.399 28.046)" fill="#ff4a00"/>
    </g>
    <g id="Group_46" data-name="Group 46" transform="translate(2009.197 1938.153)">
      <g id="Group_42" data-name="Group 42" transform="translate(0 0)">
        <g transform="matrix(1, 0, 0, 1, -116.2, -22.5)" filter="url(#Path_177-2)">
          <path id="Path_177-6" data-name="Path 177" d="M519.882,389.626H435.059A15.672,15.672,0,0,1,419.234,373.8V288.978a15.672,15.672,0,0,1,15.825-15.825h84.822a15.672,15.672,0,0,1,15.825,15.825V373.8A15.672,15.672,0,0,1,519.882,389.626Z" transform="translate(-303.04 -250.65)" fill="#fff"/>
        </g>
        <path id="Path_178-2" data-name="Path 178" d="M544.914,442.553c-.974,0-2.435-.974-2.435-1.948a3.289,3.289,0,0,1,1.948-2.923,40.342,40.342,0,0,0,20.944-8.768c.974-.974,2.435-.487,3.41.487s.487,2.435-.487,3.409A43.829,43.829,0,0,1,544.914,442.553Zm-23.867-2.922h-.974a47.9,47.9,0,0,1-20.458-15.1c-.974-.974-.487-2.435.487-3.409s2.435-.487,3.41.487a47.11,47.11,0,0,0,18.509,13.639,2.17,2.17,0,0,1,1.461,2.922A2.679,2.679,0,0,1,521.047,439.631Zm61.372-24.842h-.974a2.515,2.515,0,0,1-1.461-3.409,48.487,48.487,0,0,0,3.9-18.509v-3.9a2.435,2.435,0,1,1,4.87,0v4.384a48.226,48.226,0,0,1-4.383,20.457A2.531,2.531,0,0,1,582.419,414.79Zm-91.084-11.2a3.237,3.237,0,0,1-2.435-1.948,53.656,53.656,0,0,1-.974-8.768,51.762,51.762,0,0,1,6.332-24.354,2.507,2.507,0,1,1,4.384,2.435,43.465,43.465,0,0,0-5.845,21.918,41.892,41.892,0,0,0,.487,7.794c.974,1.461,0,2.435-1.949,2.922Zm86.7-35.069a2.532,2.532,0,0,1-1.949-.975,46.175,46.175,0,0,0-17.047-15.1,2.507,2.507,0,1,1,2.435-4.384,52.111,52.111,0,0,1,19,16.561c.975.975.487,2.436-.487,3.41C579.01,368.03,578.523,368.518,578.036,368.518Zm-64.781-14.125a2.53,2.53,0,0,1-1.948-.975,2.567,2.567,0,0,1,.974-3.409c7.306-4.384,15.587-7.306,24.354-7.306a2.436,2.436,0,0,1,0,4.871,44.543,44.543,0,0,0-21.918,6.819Z" transform="translate(-480.147 -334.301)" fill="#939cbc"/>
      </g>
      <path id="Webflow_logo_2_" data-name="Webflow_logo (2)" d="M42.857,63.729s-4.685,14.714-5.067,15.928C37.652,78.408,34.216,52,34.216,52c-7.982,0-12.25,5.691-14.506,11.695,0,0-5.691,14.748-6.177,16-.035-1.145-.868-15.824-.868-15.824C12.18,56.511,5.448,52.035,0,52.035L6.593,92.046c8.363-.035,12.875-5.691,15.234-11.695,0,0,5.032-13.013,5.24-13.6.035.555,3.609,25.3,3.609,25.3,8.4,0,12.909-5.309,15.338-11.1L57.779,52.035C49.485,52.035,45.113,57.691,42.857,63.729Z" transform="translate(32.351 -11.141)" fill="#4451ef"/>
    </g>
    <g id="Group_48" data-name="Group 48" transform="translate(2381.118 2335.508)">
      <g id="Group_44" data-name="Group 44" transform="translate(0 0)">
        <g transform="matrix(1, 0, 0, 1, -488.12, -419.85)" filter="url(#Path_177-3)">
          <path id="Path_177-7" data-name="Path 177" d="M519.882,389.626H435.059A15.672,15.672,0,0,1,419.234,373.8V288.978a15.672,15.672,0,0,1,15.825-15.825h84.822a15.672,15.672,0,0,1,15.825,15.825V373.8A15.672,15.672,0,0,1,519.882,389.626Z" transform="translate(68.88 146.7)" fill="#fff"/>
        </g>
        <path id="Path_178-3" data-name="Path 178" d="M544.914,442.553c-.974,0-2.435-.974-2.435-1.948a3.289,3.289,0,0,1,1.948-2.923,40.342,40.342,0,0,0,20.944-8.768c.974-.974,2.435-.487,3.41.487s.487,2.435-.487,3.409A43.829,43.829,0,0,1,544.914,442.553Zm-23.867-2.922h-.974a47.9,47.9,0,0,1-20.458-15.1c-.974-.974-.487-2.435.487-3.409s2.435-.487,3.41.487a47.11,47.11,0,0,0,18.509,13.639,2.17,2.17,0,0,1,1.461,2.922A2.679,2.679,0,0,1,521.047,439.631Zm61.372-24.842h-.974a2.515,2.515,0,0,1-1.461-3.409,48.487,48.487,0,0,0,3.9-18.509v-3.9a2.435,2.435,0,1,1,4.87,0v4.384a48.226,48.226,0,0,1-4.383,20.457A2.531,2.531,0,0,1,582.419,414.79Zm-91.084-11.2a3.237,3.237,0,0,1-2.435-1.948,53.656,53.656,0,0,1-.974-8.768,51.762,51.762,0,0,1,6.332-24.354,2.507,2.507,0,1,1,4.384,2.435,43.465,43.465,0,0,0-5.845,21.918,41.892,41.892,0,0,0,.487,7.794c.974,1.461,0,2.435-1.949,2.922Zm86.7-35.069a2.532,2.532,0,0,1-1.949-.975,46.175,46.175,0,0,0-17.047-15.1,2.507,2.507,0,1,1,2.435-4.384,52.111,52.111,0,0,1,19,16.561c.975.975.487,2.436-.487,3.41C579.01,368.03,578.523,368.518,578.036,368.518Zm-64.781-14.125a2.53,2.53,0,0,1-1.948-.975,2.567,2.567,0,0,1,.974-3.409c7.306-4.384,15.587-7.306,24.354-7.306a2.436,2.436,0,0,1,0,4.871,44.543,44.543,0,0,0-21.918,6.819Z" transform="translate(-480.147 -334.301)" fill="#939cbc"/>
      </g>
      <g id="Airtable_Logo_1_" data-name="Airtable_Logo (1)" transform="translate(27.928 33.118)">
        <path id="Path_169" data-name="Path 169" d="M33.746.636l-22.5,9.312a1.508,1.508,0,0,0,.021,2.795L33.86,21.7a8.384,8.384,0,0,0,6.182,0l22.6-8.962a1.507,1.507,0,0,0,.02-2.794L40.158.636a8.385,8.385,0,0,0-6.412,0" transform="translate(-6.793 0.002)" fill="#fcb400"/>
        <path id="Path_170" data-name="Path 170" d="M94.273,56.172V78.559a1.508,1.508,0,0,0,2.063,1.4l25.181-9.774a1.507,1.507,0,0,0,.952-1.4V46.4a1.508,1.508,0,0,0-2.063-1.4L95.225,54.771a1.508,1.508,0,0,0-.952,1.4" transform="translate(-62.109 -29.574)" fill="#18bfff"/>
        <path id="Path_171" data-name="Path 171" d="M26.283,57.51,18.81,61.119l-.759.367L2.276,69.044A1.6,1.6,0,0,1,0,67.687V46.675a1.4,1.4,0,0,1,.482-1.01,1.714,1.714,0,0,1,.382-.287,1.607,1.607,0,0,1,1.372-.106l23.922,9.479a1.509,1.509,0,0,1,.126,2.759" transform="translate(0 -29.757)" fill="#f82b60"/>
        <path id="Path_172" data-name="Path 172" d="M27.215,57.51l-7.473,3.608L1.414,45.665a1.714,1.714,0,0,1,.382-.286,1.607,1.607,0,0,1,1.372-.106l23.922,9.479a1.509,1.509,0,0,1,.126,2.759" transform="translate(-0.932 -29.757)" fill="rgba(0,0,0,0.25)"/>
      </g>
    </g>
    <g id="Group_45" data-name="Group 45" transform="translate(2009.197 2173.322)">
      <g id="Group_43" data-name="Group 43" transform="translate(0 0)">
        <g transform="matrix(1, 0, 0, 1, -116.2, -257.67)" filter="url(#Path_177-4)">
          <path id="Path_177-8" data-name="Path 177" d="M519.882,389.626H435.059A15.672,15.672,0,0,1,419.234,373.8V288.978a15.672,15.672,0,0,1,15.825-15.825h84.822a15.672,15.672,0,0,1,15.825,15.825V373.8A15.672,15.672,0,0,1,519.882,389.626Z" transform="translate(-303.04 -15.48)" fill="#fff"/>
        </g>
        <path id="Path_178-4" data-name="Path 178" d="M544.914,442.553c-.974,0-2.435-.974-2.435-1.948a3.289,3.289,0,0,1,1.948-2.923,40.342,40.342,0,0,0,20.944-8.768c.974-.974,2.435-.487,3.41.487s.487,2.435-.487,3.409A43.829,43.829,0,0,1,544.914,442.553Zm-23.867-2.922h-.974a47.9,47.9,0,0,1-20.458-15.1c-.974-.974-.487-2.435.487-3.409s2.435-.487,3.41.487a47.11,47.11,0,0,0,18.509,13.639,2.17,2.17,0,0,1,1.461,2.922A2.679,2.679,0,0,1,521.047,439.631Zm61.372-24.842h-.974a2.515,2.515,0,0,1-1.461-3.409,48.487,48.487,0,0,0,3.9-18.509v-3.9a2.435,2.435,0,1,1,4.87,0v4.384a48.226,48.226,0,0,1-4.383,20.457A2.531,2.531,0,0,1,582.419,414.79Zm-91.084-11.2a3.237,3.237,0,0,1-2.435-1.948,53.656,53.656,0,0,1-.974-8.768,51.762,51.762,0,0,1,6.332-24.354,2.507,2.507,0,1,1,4.384,2.435,43.465,43.465,0,0,0-5.845,21.918,41.892,41.892,0,0,0,.487,7.794c.974,1.461,0,2.435-1.949,2.922Zm86.7-35.069a2.532,2.532,0,0,1-1.949-.975,46.175,46.175,0,0,0-17.047-15.1,2.507,2.507,0,1,1,2.435-4.384,52.111,52.111,0,0,1,19,16.561c.975.975.487,2.436-.487,3.41C579.01,368.03,578.523,368.518,578.036,368.518Zm-64.781-14.125a2.53,2.53,0,0,1-1.948-.975,2.567,2.567,0,0,1,.974-3.409c7.306-4.384,15.587-7.306,24.354-7.306a2.436,2.436,0,0,1,0,4.871,44.543,44.543,0,0,0-21.918,6.819Z" transform="translate(-480.147 -334.301)" fill="#939cbc"/>
      </g>
      <g id="Shopify_logo_2018" transform="translate(33.825 30.538)">
        <path id="Path_173" data-name="Path 173" d="M42.653,319.486a.483.483,0,0,0-.487-.422c-.195,0-4.451-.325-4.451-.325s-2.956-2.956-3.314-3.249a1.363,1.363,0,0,0-1.2-.162c-.032,0-.65.195-1.657.52-1.007-2.891-2.729-5.523-5.815-5.523h-.292a3.777,3.777,0,0,0-2.859-1.624c-7.147,0-10.591,8.934-11.663,13.482-2.794.877-4.776,1.462-5,1.559-1.559.487-1.592.52-1.787,1.982-.162,1.1-4.223,32.52-4.223,32.52l31.61,5.913,17.153-3.7C48.7,360.387,42.686,319.778,42.653,319.486ZM29.788,316.3c-.78.227-1.722.52-2.664.845v-.585a12.479,12.479,0,0,0-.65-4.321C28.1,312.436,29.106,314.223,29.788,316.3Zm-5.3-3.7a13.609,13.609,0,0,1,.715,4.808v.325c-1.754.552-3.606,1.1-5.523,1.722C20.757,315.36,22.8,313.346,24.493,312.6Zm-2.079-2.014a1.552,1.552,0,0,1,.91.325c-2.307,1.072-4.743,3.768-5.75,9.226-1.527.487-2.989.91-4.386,1.364C14.357,317.342,17.281,310.584,22.414,310.584Z" transform="translate(0.1 -308.7)" fill="#95bf47"/>
        <path id="Path_174" data-name="Path 174" d="M108.058,332.568c-.195,0-4.451-.325-4.451-.325s-2.956-2.956-3.314-3.249a.629.629,0,0,0-.422-.195L97.5,377.726l17.153-3.7s-6.01-40.674-6.043-40.966A.879.879,0,0,0,108.058,332.568Z" transform="translate(-65.792 -322.27)" fill="#5e8e3e"/>
        <path id="Path_175" data-name="Path 175" d="M41.39,367.91l-2.079,6.27a9.772,9.772,0,0,0-4.126-1.007c-3.346,0-3.509,2.112-3.509,2.631,0,2.859,7.472,3.963,7.472,10.688,0,5.3-3.346,8.707-7.862,8.707a10.823,10.823,0,0,1-8.187-3.379l1.462-4.808s2.859,2.469,5.263,2.469a2.134,2.134,0,0,0,2.242-2.144c0-3.736-6.108-3.9-6.108-10.071,0-5.165,3.7-10.169,11.208-10.169A8.674,8.674,0,0,1,41.39,367.91Z" transform="translate(-15.563 -348.126)" fill="#fff"/>
      </g>
    </g>
    <g id="Group_50" data-name="Group 50" transform="translate(2294.739 2112.517)">
      <path id="Path_181" data-name="Path 181" d="M1034.5,186.193h14.242a1.609,1.609,0,1,1,0,3.217H1034.5a1.609,1.609,0,0,1,0-3.217Z" transform="translate(-1032.893 -186.193)" fill="#939cbc" stroke="#939cbc" stroke-width="5" fill-rule="evenodd"/>
      <path id="Path_182" data-name="Path 182" d="M958.312,186.193H942.226a1.609,1.609,0,0,0,0,3.217h16.085a1.609,1.609,0,0,0,0-3.217Zm16.085,0h16.085a1.609,1.609,0,1,1,0,3.217H974.4a1.609,1.609,0,0,1,0-3.217Z" transform="translate(-911.968 -186.193)" fill="#939cbc" stroke="#939cbc" stroke-width="5" fill-rule="evenodd"/>
    </g>
    <path id="Path_184" data-name="Path 184" d="M350.383,621.857a7.191,7.191,0,1,1-7.191-7.191A7.191,7.191,0,0,1,350.383,621.857Z" transform="translate(1647.363 1579.856)" fill="#000229" fill-rule="evenodd"/>
    <path id="Path_185" data-name="Path 185" d="M376.193,634.762a20.1,20.1,0,1,1-20.1-20.1A20.1,20.1,0,0,1,376.193,634.762Z" transform="translate(1557 1346.161)" fill="#0f1238" fill-rule="evenodd"/>
    <g id="UI_Element_32" data-name="UI Element 32" transform="translate(2357.81 2185.798)">
      <path id="Path_187" data-name="Path 187" d="M31.748,243.914H190.533a3.752,3.752,0,0,0,3.749-3.748V200.5a2.5,2.5,0,0,0-5,0v38.418H140.42V203h34.427a2.5,2.5,0,1,0,0-5H30.5a2.5,2.5,0,0,0-2.486,2.243A2.529,2.529,0,0,0,28,200.5v39.667A3.752,3.752,0,0,0,31.748,243.914ZM135.423,203H86.559v35.919h48.864ZM33,203H81.561v35.919H33Z" transform="translate(-28 -198)" fill="#000229" fill-rule="evenodd"/>
      <path id="Path_188" data-name="Path 188" d="M204.148,325.178a2.5,2.5,0,0,0,5,0v-4.619a2.5,2.5,0,1,0-5,0Zm57.672,0a2.5,2.5,0,0,0,5,0v-4.619a2.5,2.5,0,0,0-5,0Zm-5.118,2.5a2.5,2.5,0,0,1-2.5-2.5v-4.619a2.5,2.5,0,1,1,5,0v4.619A2.5,2.5,0,0,1,256.7,327.677Zm55.171-2.5a2.5,2.5,0,1,0,5,0v-4.619a2.5,2.5,0,1,0-5,0Zm-5.118,2.5a2.5,2.5,0,0,1-2.5-2.5v-4.619a2.5,2.5,0,0,1,5,0v4.619A2.5,2.5,0,0,1,306.756,327.677Zm12.735-2.5a2.5,2.5,0,1,0,5,0v-4.619a2.5,2.5,0,1,0-5,0Z" transform="translate(-177.52 -299.911)" fill="#000229" fill-rule="evenodd"/>
    </g>
    <path id="Path_189" data-name="Path 189" d="M14.3,57.308a4.692,4.692,0,0,0,9.384,0V4.688a4.692,4.692,0,0,0-9.384,0ZM4.692,62A4.69,4.69,0,0,1,0,57.308V4.688a4.692,4.692,0,0,1,9.384,0v52.62A4.69,4.69,0,0,1,4.692,62Zm23.914-4.688a4.692,4.692,0,0,0,9.383,0V4.688a4.692,4.692,0,0,0-9.383,0Z" transform="translate(2000.35 1960.984) rotate(90)" fill="#000229" fill-rule="evenodd"/>
    <path id="Path_194" data-name="Path 194" d="M20.478,0H1.862A1.759,1.759,0,0,0,0,1.862,1.759,1.759,0,0,0,1.862,3.724H20.478A1.759,1.759,0,0,0,22.34,1.862,1.759,1.759,0,0,0,20.478,0ZM124.362,173.131a1.757,1.757,0,0,1,1.856-1.862,2,2,0,0,1,1.864,1.862v18.617a1.86,1.86,0,1,1-3.72,0Zm0,37.234a1.757,1.757,0,0,1,1.856-1.862,2,2,0,0,1,1.864,1.862V228.98a1.86,1.86,0,1,1-3.72,0ZM87.869,268.449a41,41,0,0,0,6.7-.745c1.12,0,2.232.373,2.232,1.49a2.037,2.037,0,0,1-1.488,2.233l-.867.126a44.063,44.063,0,0,1-6.581.619H76.325a1.861,1.861,0,0,1,0-3.723Zm-86.007,0H20.478a1.862,1.862,0,0,1,0,3.724H1.862a1.862,1.862,0,0,1,0-3.724Zm55.849,0H39.094a1.862,1.862,0,0,0,0,3.724H57.71a1.862,1.862,0,1,0,0-3.724Zm65.9-23.087c-1.12-.373-1.864,0-2.608,1.117a34.9,34.9,0,0,1-10.792,13.776c-.752.745-1.12,1.861-.376,2.606a1.94,1.94,0,0,0,1.488.745,1.372,1.372,0,0,0,1.12-.373,39.71,39.71,0,0,0,11.911-15.265C125.1,247.224,124.73,246.107,123.611,245.363Zm.752-165.313a1.757,1.757,0,0,1,1.856-1.861,2,2,0,0,1,1.864,1.861V98.666a1.86,1.86,0,1,1-3.72,0Zm0-18.617a1.86,1.86,0,1,0,3.72,0V42.817a1.86,1.86,0,1,0-3.72,0Zm-1.12-34.626a2.055,2.055,0,0,1-1.864-1.117c-2.6-5.585-5.952-10.425-10.423-13.776-.744-.745-1.112-1.862-.368-2.606s1.856-1.117,2.608-.373A39.713,39.713,0,0,1,125.106,24.2a1.925,1.925,0,0,1-1.12,2.606ZM94.457.621h-.008A44.062,44.062,0,0,0,87.869,0H76.325a1.757,1.757,0,0,0-1.856,1.862,1.757,1.757,0,0,0,1.856,1.862H87.869a41,41,0,0,1,6.7.745h.376A2.46,2.46,0,0,0,96.8,2.979,1.638,1.638,0,0,0,95.316.745L94.764.666ZM39.094,0H57.71a1.759,1.759,0,0,1,1.864,1.862A1.759,1.759,0,0,1,57.71,3.724H39.094a1.759,1.759,0,0,1-1.861-1.862A1.759,1.759,0,0,1,39.094,0Z" transform="translate(2137.243 1979.82)" fill="#939cbc" stroke="#939cbc" stroke-width="5" fill-rule="evenodd"/>
    <g id="Group_49" data-name="Group 49" transform="translate(2236.293 2089.38)">
      <path id="Path_183" data-name="Path 183" d="M87.713,129.448h5.2a20.525,20.525,0,0,0,17.9-10.283l2.541-4.476a20.649,20.649,0,0,0,0-20.808L110.82,89.4A20.636,20.636,0,0,0,92.915,79h-5.2A21.138,21.138,0,0,0,69.687,89.283L67.147,93.76a20.649,20.649,0,0,0,0,20.808l2.541,4.476A20.98,20.98,0,0,0,87.713,129.448ZM70.776,90.009a19.563,19.563,0,0,1,16.937-9.8h5.2a19.711,19.711,0,0,1,16.937,9.8l2.541,4.476a19.562,19.562,0,0,1,0,19.6l-2.541,4.476a19.563,19.563,0,0,1-16.937,9.8h-5.2a19.563,19.563,0,0,1-16.937-9.8l-2.541-4.476a19.563,19.563,0,0,1,0-19.6Z" transform="translate(-64.334 -79)" fill="#000229" fill-rule="evenodd"/>
      <path id="Path_193" data-name="Path 193" d="M85.418,123.912h4.691a18.555,18.555,0,0,0,16.147-9.155l2.291-3.985a18.179,18.179,0,0,0,0-18.525l-2.291-3.985A18.654,18.654,0,0,0,90.109,79H85.418a19.156,19.156,0,0,0-12.424,4.632,18.671,18.671,0,0,0-3.832,4.523L66.871,92.14a18.179,18.179,0,0,0,0,18.525l2.291,3.985A18.967,18.967,0,0,0,85.418,123.912Z" transform="translate(-61.752 -76.26)" fill="#000229" fill-rule="evenodd"/>
    </g>
    <path id="Path_195" data-name="Path 195" d="M477.129,460H462.306A11.5,11.5,0,0,1,450.7,448.39V433.566a11.5,11.5,0,0,1,11.611-11.611h14.823a11.5,11.5,0,0,1,11.611,11.611V448.39A11.5,11.5,0,0,1,477.129,460Zm97.8-164.875h14.823a11.644,11.644,0,0,0,11.611-11.611V268.691a11.5,11.5,0,0,0-11.611-11.611H574.932a11.5,11.5,0,0,0-11.611,11.611v14.823A11.5,11.5,0,0,0,574.932,295.126Z" transform="translate(1717.54 1769.95)" fill="#000229" fill-rule="evenodd"/>
    <g id="Group_51" data-name="Group 51" transform="translate(2439.35 2243.622)">
      <path id="Path_197" data-name="Path 197" d="M1.608,0H15.851a1.52,1.52,0,0,1,1.61,1.609,1.52,1.52,0,0,1-1.61,1.608H1.608A1.52,1.52,0,0,1,0,1.609,1.52,1.52,0,0,1,1.608,0Z" transform="translate(3.217) rotate(90)" fill="#939cbc" stroke="#939cbc" stroke-width="5" fill-rule="evenodd"/>
      <path id="Path_198" data-name="Path 198" d="M17.694,0H1.608A1.52,1.52,0,0,0,0,1.609,1.52,1.52,0,0,0,1.608,3.217H17.694A1.52,1.52,0,0,0,19.3,1.609,1.52,1.52,0,0,0,17.694,0ZM33.778,0H49.863a1.52,1.52,0,0,1,1.61,1.609,1.52,1.52,0,0,1-1.61,1.608H33.778A1.52,1.52,0,0,1,32.17,1.609,1.52,1.52,0,0,1,33.778,0Z" transform="translate(3.217 28.65) rotate(90)" fill="#939cbc" stroke="#939cbc" stroke-width="5" fill-rule="evenodd"/>
    </g>
    <g id="Group_53" data-name="Group 53" transform="translate(2295.184 2379.727)">
      <path id="Path_199" data-name="Path 199" d="M345.534,619.432a4.767,4.767,0,1,1-4.767-4.767A4.767,4.767,0,0,1,345.534,619.432Z" transform="translate(-336 -614.665)" fill="#000229" fill-rule="evenodd"/>
      <path id="Path_200" data-name="Path 200" d="M14.3,57.308a4.692,4.692,0,0,0,9.384,0V4.688a4.692,4.692,0,0,0-9.384,0ZM4.692,62A4.69,4.69,0,0,1,0,57.308V4.688a4.692,4.692,0,0,1,9.384,0v52.62A4.69,4.69,0,0,1,4.692,62Zm23.914-4.688a4.692,4.692,0,0,0,9.383,0V4.688a4.692,4.692,0,0,0-9.383,0Z" transform="translate(74.544 0.157) rotate(90)" fill="#000229" fill-rule="evenodd"/>
      <path id="Path_201" data-name="Path 201" d="M345.534,619.432a4.767,4.767,0,1,1-4.767-4.767A4.767,4.767,0,0,1,345.534,619.432Z" transform="translate(-336 -600.289)" fill="#000229" fill-rule="evenodd"/>
      <path id="Path_202" data-name="Path 202" d="M345.534,619.432a4.767,4.767,0,1,1-4.767-4.767A4.767,4.767,0,0,1,345.534,619.432Z" transform="translate(-336 -585.914)" fill="#000229" fill-rule="evenodd"/>
    </g>
    <path id="Path_203" data-name="Path 203" d="M350.383,621.857a7.191,7.191,0,1,1-7.191-7.191A7.191,7.191,0,0,1,350.383,621.857Z" transform="translate(1629.246 1597.974)" fill="#000229" fill-rule="evenodd"/>
    <path id="Path_204" data-name="Path 204" d="M350.383,621.857a7.191,7.191,0,1,1-7.191-7.191A7.191,7.191,0,0,1,350.383,621.857Z" transform="translate(1629.246 1579.856)" fill="#000229" fill-rule="evenodd"/>
  </g>
</svg>
