<svg xmlns="http://www.w3.org/2000/svg" xmlns:xlink="http://www.w3.org/1999/xlink" width="216" height="114" viewBox="0 0 216 114">
  <defs>
    <filter id="Rectangle_20" x="0" y="0" width="216" height="114" filterUnits="userSpaceOnUse">
      <feOffset input="SourceAlpha"/>
      <feGaussianBlur stdDeviation="7.5" result="blur"/>
      <feFlood flood-opacity="0.161"/>
      <feComposite operator="in" in2="blur"/>
      <feComposite in="SourceGraphic"/>
    </filter>
  </defs>
  <g id="Group_155" data-name="Group 155" transform="translate(22.729 22.5)">
    <g transform="matrix(1, 0, 0, 1, -22.73, -22.5)" filter="url(#Rectangle_20)">
      <rect id="Rectangle_20-2" data-name="Rectangle 20" width="171" height="69" rx="5" transform="translate(22.5 22.5)" fill="#f8f8f8"/>
    </g>
    <g id="Shopify_logo_2018" transform="translate(36.932 20.882)">
      <path id="Path_151" data-name="Path 151" d="M20.737,313.957a.235.235,0,0,0-.238-.206c-.1,0-2.169-.158-2.169-.158s-1.441-1.441-1.615-1.583a.665.665,0,0,0-.586-.079c-.016,0-.317.1-.808.253-.491-1.409-1.33-2.692-2.834-2.692h-.143a1.841,1.841,0,0,0-1.393-.792c-3.483,0-5.162,4.354-5.684,6.571-1.362.428-2.328.713-2.438.76-.76.238-.776.253-.871.966-.079.538-2.058,15.85-2.058,15.85l15.406,2.882,8.36-1.805C23.682,333.892,20.753,314.1,20.737,313.957Zm-6.27-1.552c-.38.111-.839.253-1.3.412v-.285a6.082,6.082,0,0,0-.317-2.106C13.644,310.521,14.135,311.392,14.467,312.405ZM11.886,310.6a6.633,6.633,0,0,1,.348,2.343v.158c-.855.269-1.758.538-2.692.839A4.721,4.721,0,0,1,11.886,310.6Zm-1.013-.982a.757.757,0,0,1,.443.158c-1.124.523-2.312,1.837-2.8,4.5-.744.238-1.457.443-2.138.665C6.946,312.912,8.371,309.618,10.873,309.618Z" transform="translate(0.1 -308.7)" fill="rgba(147,156,188,0.6)"/>
      <path id="Path_152" data-name="Path 152" d="M102.646,330.637c-.1,0-2.169-.158-2.169-.158s-1.441-1.441-1.615-1.583a.307.307,0,0,0-.206-.1L97.5,352.646l8.36-1.805s-2.929-19.824-2.945-19.966A.428.428,0,0,0,102.646,330.637Z" transform="translate(-82.046 -325.617)" fill="rgba(147,156,188,0.6)"/>
      <path id="Path_153" data-name="Path 153" d="M32.014,367.493,31,370.549a4.763,4.763,0,0,0-2.011-.491c-1.631,0-1.71,1.029-1.71,1.283,0,1.393,3.642,1.932,3.642,5.209,0,2.581-1.631,4.243-3.832,4.243a5.275,5.275,0,0,1-3.99-1.647l.713-2.343a5.062,5.062,0,0,0,2.565,1.2,1.04,1.04,0,0,0,1.093-1.045c0-1.821-2.977-1.9-2.977-4.908,0-2.518,1.805-4.956,5.463-4.956A4.228,4.228,0,0,1,32.014,367.493Z" transform="translate(-19.427 -357.851)" fill="rgba(147,156,188,0.6)"/>
      <path id="Path_154" data-name="Path 154" d="M180.038,352.707c-.839-.443-1.267-.839-1.267-1.362,0-.665.6-1.093,1.536-1.093a5.552,5.552,0,0,1,2.058.443l.76-2.328a4.849,4.849,0,0,0-2.755-.538c-2.866,0-4.861,1.647-4.861,3.958a3.657,3.657,0,0,0,2.169,3.024c1.013.554,1.362.966,1.362,1.568,0,.617-.507,1.124-1.441,1.124a6.473,6.473,0,0,1-2.692-.713l-.808,2.328a6.179,6.179,0,0,0,3.23.808c2.945,0,5.083-1.457,5.083-4.069C182.381,354.433,181.32,353.451,180.038,352.707Zm11.749-4.908a4.418,4.418,0,0,0-3.468,1.742l-.032-.016,1.267-6.587h-3.278l-3.2,16.784h3.278l1.093-5.732c.428-2.169,1.552-3.515,2.6-3.515.744,0,1.029.507,1.029,1.219a6.494,6.494,0,0,1-.143,1.457l-1.235,6.571h3.278l1.283-6.777a12.241,12.241,0,0,0,.238-2.153c-.016-1.884-.982-2.993-2.708-2.993Zm10.118,0c-3.958,0-6.571,3.563-6.571,7.537a4.289,4.289,0,0,0,4.513,4.592c3.879,0,6.492-3.468,6.492-7.537C206.353,350.031,204.992,347.8,201.9,347.8Zm-1.615,9.627c-1.124,0-1.583-.95-1.583-2.153,0-1.884.966-4.94,2.755-4.94,1.156,0,1.552,1.013,1.552,1.979C203.012,354.322,202.015,357.425,200.289,357.425Zm14.456-9.627a4.471,4.471,0,0,0-3.468,1.963h-.032l.19-1.758h-2.913c-.143,1.188-.412,3.008-.665,4.354l-2.264,12.018h3.278l.918-4.861h.079a3.84,3.84,0,0,0,1.916.428c3.863,0,6.381-3.958,6.381-7.949C218.15,349.778,217.152,347.8,214.745,347.8Zm-3.135,9.659a2.067,2.067,0,0,1-1.362-.491l.538-3.056c.38-2.058,1.457-3.4,2.6-3.4,1.013,0,1.314.934,1.314,1.8C214.714,354.433,213.447,357.457,211.61,357.457ZM222.836,343.1a1.882,1.882,0,0,0-1.884,1.9,1.523,1.523,0,0,0,1.552,1.647h.032a1.84,1.84,0,0,0,1.916-1.9A1.538,1.538,0,0,0,222.836,343.1Zm-4.592,16.61h3.278l2.217-11.654h-3.293m11.654-.016h-2.28l.111-.538c.19-1.124.855-2.106,1.963-2.106a3.26,3.26,0,0,1,1.045.174l.633-2.581a4.258,4.258,0,0,0-1.789-.285,4.916,4.916,0,0,0-3.214,1.092,6.137,6.137,0,0,0-1.9,3.721l-.1.538h-1.536l-.491,2.486h1.536l-1.742,9.184h3.278l1.742-9.184h2.264Zm7.9.016s-2.058,5.178-2.961,8.012h-.032c-.063-.918-.808-8.012-.808-8.012h-3.452l1.979,10.672a.742.742,0,0,1-.079.538,5.588,5.588,0,0,1-1.789,1.979,7.345,7.345,0,0,1-1.868.934l.918,2.787a7.5,7.5,0,0,0,3.214-1.789,22.176,22.176,0,0,0,4.307-6.508l4.006-8.629H240Z" transform="translate(-146.518 -337.317)" fill="rgba(147,156,188,0.6)"/>
    </g>
  </g>
</svg>
