<svg xmlns="http://www.w3.org/2000/svg" xmlns:xlink="http://www.w3.org/1999/xlink" width="224" height="114" viewBox="0 0 224 114">
  <defs>
    <filter id="Rectangle_21" x="0" y="0" width="224" height="114" filterUnits="userSpaceOnUse">
      <feOffset input="SourceAlpha"/>
      <feGaussianBlur stdDeviation="7.5" result="blur"/>
      <feFlood flood-opacity="0.161"/>
      <feComposite operator="in" in2="blur"/>
      <feComposite in="SourceGraphic"/>
    </filter>
  </defs>
  <g id="Group_39" data-name="Group 39" transform="translate(22.5 22.5)">
    <g transform="matrix(1, 0, 0, 1, -22.5, -22.5)" filter="url(#Rectangle_21)">
      <rect id="Rectangle_21-2" data-name="Rectangle 21" width="179" height="69" rx="5" transform="translate(22.5 22.5)" fill="#f8f8f8"/>
    </g>
    <path id="Webflow_logo_2_" data-name="Webflow_logo (2)" d="M52.93,16.122c0-2.941-2.859-6.064-7.808-6.064-5.557,0-11.661,4.076-12.594,12.208-.953,8.213,4.157,11.864,9.308,11.864s7.848-2.008,10.606-4.685a4.691,4.691,0,0,0-6.023-1.3,6.165,6.165,0,0,1-3.184.771c-1.987,0-4.015-.892-4.015-4.6C51.957,23.058,52.93,19.063,52.93,16.122Zm-6.307.487c-.081.913-.446,2.474-6.9,3.346,1.359-4.827,3.955-5.192,5.151-5.192A1.685,1.685,0,0,1,46.623,16.609ZM25.046,17.4s-2.738,8.6-2.961,9.308C22,25.979,20,10.546,20,10.546c-4.664,0-7.159,3.326-8.477,6.834,0,0-3.326,8.619-3.61,9.349-.02-.669-.507-9.248-.507-9.248A7.621,7.621,0,0,0,0,10.566L3.853,33.948c4.887-.02,7.524-3.326,8.9-6.834,0,0,2.941-7.6,3.062-7.95.02.324,2.109,14.784,2.109,14.784,4.908,0,7.544-3.1,8.964-6.49l6.875-16.893C28.919,10.566,26.364,13.871,25.046,17.4Zm45.893-7.382c-3.022,0-5.334,1.643-7.28,4.056v-.02L65.4,0c-4.015,0-7.28,3.488-7.909,8.68L54.451,33.766c2.312,0,4.766-.669,6.084-2.373a6.736,6.736,0,0,0,5.557,2.738c6.773,0,11.418-7.869,11.418-15.25C77.469,12.148,74.2,10.018,70.939,10.018ZM70.31,22.085C69.6,26.2,67.309,29,65.1,29a4.5,4.5,0,0,1-3.184-.994c.426-3.61.69-5.82,1.5-7.727s2.738-4.948,4.745-4.948C70.128,15.332,71.02,17.948,70.31,22.085ZM94.423,10.566H89.7l.02-.243c.324-3.083,1.055-4.7,3.468-4.969a2.53,2.53,0,0,0,2.555-1.947c.142-.73.588-3.265.588-3.265C86.838.081,83.857,4.178,83.087,10.424l-.02.142h-.1c-1.541,0-3.245,1.744-3.529,3.955l-.1.811H82.5L79.842,37.274l-.811,3.934c.1,0,.223.02.324.02,4.441-.162,7.28-3.671,7.909-8.761l2.069-17.136h1.48c1.46,0,3.164-1.46,3.468-3.894ZM119,10.16c-5.455,0-10.606,4.015-12.188,10.322s.811,13.77,8.842,13.77c8.011,0,12.634-7.767,12.634-14.236C128.29,13.588,123.93,10.16,119,10.16Zm2.211,11.722c-.284,2.859-1.541,7.2-4.989,7.2-3.468,0-2.981-5.07-2.636-7.483.365-2.576,1.8-6.246,4.908-6.246C121.274,15.352,121.537,18.657,121.213,21.882Zm34.03-4.482s-2.738,8.6-2.961,9.308c-.081-.73-2.089-16.163-2.089-16.163-4.664,0-7.159,3.326-8.477,6.834,0,0-3.326,8.619-3.61,9.349-.02-.669-.507-9.248-.507-9.248a7.621,7.621,0,0,0-7.4-6.915l3.833,23.383c4.887-.02,7.524-3.326,8.9-6.834,0,0,2.941-7.6,3.042-7.95.041.324,2.109,14.784,2.109,14.784,4.908,0,7.544-3.1,8.964-6.49l6.875-16.893C159.1,10.566,156.54,13.871,155.242,17.4ZM98.885.142,94.91,32.2h0L94.1,36.159c.1,0,.223.02.324.02h0c4.279-.061,7.321-3.813,7.889-8.538L104.6,9.248C105.293,3.63,101.947.142,98.885.142Z" transform="translate(9.661 12.882)" fill="rgba(147,156,188,0.6)"/>
  </g>
</svg>
