<svg xmlns="http://www.w3.org/2000/svg" xmlns:xlink="http://www.w3.org/1999/xlink" width="199" height="114" viewBox="0 0 199 114">
  <defs>
    <filter id="Rectangle_19" x="0" y="0" width="199" height="114" filterUnits="userSpaceOnUse">
      <feOffset input="SourceAlpha"/>
      <feGaussianBlur stdDeviation="7.5" result="blur"/>
      <feFlood flood-opacity="0.161"/>
      <feComposite operator="in" in2="blur"/>
      <feComposite in="SourceGraphic"/>
    </filter>
  </defs>
  <g id="Group_37" data-name="Group 37" transform="translate(22.013 22.5)">
    <g transform="matrix(1, 0, 0, 1, -22.01, -22.5)" filter="url(#Rectangle_19)">
      <rect id="Rectangle_19-2" data-name="Rectangle 19" width="154" height="69" rx="5" transform="translate(22.5 22.5)" fill="#f8f8f8"/>
    </g>
    <path id="Zapier_logo_1_" data-name="Zapier_logo (1)" d="M67.378,22.582h-2.8a5.385,5.385,0,0,1-.129-.8,9.131,9.131,0,0,1,0-1.765,5.437,5.437,0,0,1,.129-.8h6.975V41.311a10.425,10.425,0,0,1-1.055.128q-.527.04-1.055.043-.506,0-1.011-.043a10.4,10.4,0,0,1-1.054-.129V22.581h0ZM91.66,28.136a8.149,8.149,0,0,0-.322-2.3,5.875,5.875,0,0,0-.947-1.916A4.621,4.621,0,0,0,88.8,22.6a5,5,0,0,0-2.3-.5A5.074,5.074,0,0,0,82.468,23.7a7.8,7.8,0,0,0-1.7,4.435H91.66ZM80.724,31.322q.086,3.616,1.873,5.3a7.436,7.436,0,0,0,5.274,1.68,15.833,15.833,0,0,0,5.812-1.077,6.487,6.487,0,0,1,.559,1.572,10.246,10.246,0,0,1,.258,1.83,14.377,14.377,0,0,1-3.121.9,21.734,21.734,0,0,1-3.767.3,14.231,14.231,0,0,1-5.167-.84A9.08,9.08,0,0,1,76.849,35a15.466,15.466,0,0,1-.646-4.585,16.242,16.242,0,0,1,.624-4.586,10.333,10.333,0,0,1,1.916-3.7,9.256,9.256,0,0,1,3.251-2.5,10.735,10.735,0,0,1,4.628-.926,9.68,9.68,0,0,1,4,.775,8.142,8.142,0,0,1,2.885,2.131,9.261,9.261,0,0,1,1.765,3.229,13.227,13.227,0,0,1,.6,4.069q0,.6-.044,1.27-.035.571-.086,1.141H80.724Zm19.85-12.1q.449-.082.9-.129c.286-.028.588-.043.9-.043s.631.015.947.043a7.1,7.1,0,0,1,.861.129q.128.646.257,1.7a15.124,15.124,0,0,1,.13,1.787,8.919,8.919,0,0,1,2.389-2.541,6.337,6.337,0,0,1,3.81-1.076q.344,0,.71.022c.209.011.418.032.624.064a6.989,6.989,0,0,1,.129.818q.042.43.043.9a9.413,9.413,0,0,1-.064,1.076q-.062.54-.15,1.076a2.966,2.966,0,0,0-.711-.086h-.582a7.545,7.545,0,0,0-2.217.323,4.64,4.64,0,0,0-1.894,1.141,5.674,5.674,0,0,0-1.334,2.239,11.3,11.3,0,0,0-.5,3.659V41.31a10.471,10.471,0,0,1-1.055.129q-.58.043-1.054.043-.528,0-1.055-.043-.552-.04-1.1-.129V19.224ZM70.357,7.43a4.279,4.279,0,0,1-.275,1.509,4.285,4.285,0,0,1-1.509.275h-.006a4.281,4.281,0,0,1-1.51-.275,4.275,4.275,0,0,1-.275-1.509V7.423a4.279,4.279,0,0,1,.274-1.509,4.271,4.271,0,0,1,1.51-.275h.006a4.264,4.264,0,0,1,1.509.275,4.272,4.272,0,0,1,.275,1.509V7.43h0Zm5.261-1.195H71.446L74.4,3.286A7.176,7.176,0,0,0,72.711,1.6l-2.95,2.95V.379a7.181,7.181,0,0,0-1.187-.1h-.008a7.158,7.158,0,0,0-1.187.1V4.551L64.429,1.6a7.137,7.137,0,0,0-.912.772h0a7.191,7.191,0,0,0-.771.912L65.7,6.236H61.523s-.1.784-.1,1.189v0a7.15,7.15,0,0,0,.1,1.189H65.7l-2.951,2.949a7.2,7.2,0,0,0,1.685,1.685L67.38,10.3v4.172a7.213,7.213,0,0,0,1.186.1h.01a7.211,7.211,0,0,0,1.186-.1V10.3l2.95,2.95a7.2,7.2,0,0,0,.912-.772h0a7.217,7.217,0,0,0,.771-.912l-2.949-2.95h4.172a7.174,7.174,0,0,0,.1-1.186v-.01a7.183,7.183,0,0,0-.1-1.186h0ZM0,40.708,11.625,22.625H1.378A10.55,10.55,0,0,1,1.249,20.9a10.252,10.252,0,0,1,.13-1.68H17.954l.216.561L6.459,37.91H17.437a11.9,11.9,0,0,1,.129,1.765,9.954,9.954,0,0,1-.129,1.636H.216L0,40.707Zm33.538-9.774q-.646-.085-1.636-.172t-1.678-.086a7,7,0,0,0-4.068.99,3.443,3.443,0,0,0-1.4,3.014A3.7,3.7,0,0,0,25.23,36.7a3.257,3.257,0,0,0,1.184,1.119,4.1,4.1,0,0,0,1.571.474q.861.086,1.636.086a20.126,20.126,0,0,0,2.045-.108,12.27,12.27,0,0,0,1.873-.323V30.934Zm0-4.176q0-2.541-1.291-3.531a6.069,6.069,0,0,0-3.746-.99,15.9,15.9,0,0,0-2.82.237,21.575,21.575,0,0,0-2.562.624,6.7,6.7,0,0,1-.817-3.4,19.819,19.819,0,0,1,3.228-.731,23.461,23.461,0,0,1,3.4-.259q4.3,0,6.544,1.959t2.239,6.265v13.82q-1.508.344-3.66.71a26.223,26.223,0,0,1-4.391.366,17.182,17.182,0,0,1-3.81-.387,7.779,7.779,0,0,1-2.885-1.249,5.786,5.786,0,0,1-1.83-2.2,7.365,7.365,0,0,1-.646-3.229,6.581,6.581,0,0,1,2.8-5.576,9.122,9.122,0,0,1,2.971-1.377,13.515,13.515,0,0,1,3.53-.453q1.378,0,2.261.065t1.485.15v-.818ZM46.626,37.693a8.448,8.448,0,0,0,1.679.431,15.6,15.6,0,0,0,2.239.129,7.873,7.873,0,0,0,2.841-.495A5.641,5.641,0,0,0,55.6,36.23a7.47,7.47,0,0,0,1.464-2.6A11.519,11.519,0,0,0,57.6,29.9a10.216,10.216,0,0,0-1.27-5.468A4.531,4.531,0,0,0,52.18,22.41a5.607,5.607,0,0,0-2.066.388,5.1,5.1,0,0,0-1.766,1.162A5.743,5.743,0,0,0,47.1,25.919a7.565,7.565,0,0,0-.474,2.82v8.955h0Zm-4.262-18.47q.438-.086.883-.129.462-.043.926-.043c.286,0,.587.015.9.043a8.955,8.955,0,0,1,.9.129,2.707,2.707,0,0,1,.108.539q.064.452.129.968c.043.345.086.676.129.99s.065.517.065.6a8.745,8.745,0,0,1,1.033-1.335,6.9,6.9,0,0,1,1.443-1.162,7.546,7.546,0,0,1,1.894-.818,8.532,8.532,0,0,1,2.346-.3,9.819,9.819,0,0,1,3.6.646,7.194,7.194,0,0,1,2.841,2A9.631,9.631,0,0,1,61.415,24.8a16.274,16.274,0,0,1,.667,4.93q0,5.683-3.079,8.891t-8.718,3.207a14.988,14.988,0,0,1-1.937-.129,11.511,11.511,0,0,1-1.722-.344V51.472q-.545.089-1.1.129-.582.042-1.055.043-.528,0-1.055-.043a10.4,10.4,0,0,1-1.055-.129V19.223Z" transform="translate(23.073 8.737)" fill="rgba(147,156,188,0.6)"/>
  </g>
</svg>
