<svg xmlns="http://www.w3.org/2000/svg" xmlns:xlink="http://www.w3.org/1999/xlink" width="199" height="114" viewBox="0 0 199 114">
  <defs>
    <filter id="Rectangle_19" x="0" y="0" width="199" height="114" filterUnits="userSpaceOnUse">
      <feOffset input="SourceAlpha"/>
      <feGaussianBlur stdDeviation="7.5" result="blur"/>
      <feFlood flood-opacity="0.161"/>
      <feComposite operator="in" in2="blur"/>
      <feComposite in="SourceGraphic"/>
    </filter>
  </defs>
  <g id="Group_153" data-name="Group 153" transform="translate(22.013 22.5)">
    <g transform="matrix(1, 0, 0, 1, -22.01, -22.5)" filter="url(#Rectangle_19)">
      <rect id="Rectangle_19-2" data-name="Rectangle 19" width="154" height="69" rx="5" transform="translate(22.5 22.5)" fill="#f8f8f8"/>
    </g>
    <path id="Zapier_logo_1_" data-name="Zapier_logo (1)" d="M48.889,16.462H46.858a3.908,3.908,0,0,1-.094-.578,6.626,6.626,0,0,1,0-1.281,3.945,3.945,0,0,1,.094-.578H51.92V30.052a7.565,7.565,0,0,1-.765.093q-.382.029-.766.031-.367,0-.734-.031a7.543,7.543,0,0,1-.765-.094V16.462h0Zm17.619,4.03a5.912,5.912,0,0,0-.234-1.672,4.263,4.263,0,0,0-.687-1.39,3.353,3.353,0,0,0-1.156-.953,3.63,3.63,0,0,0-1.671-.359,3.681,3.681,0,0,0-2.921,1.156A5.658,5.658,0,0,0,58.6,20.493h7.9ZM58.573,22.8a5.233,5.233,0,0,0,1.359,3.842,5.4,5.4,0,0,0,3.827,1.219,11.489,11.489,0,0,0,4.217-.781,4.707,4.707,0,0,1,.406,1.14,7.435,7.435,0,0,1,.187,1.328,10.432,10.432,0,0,1-2.264.656,15.77,15.77,0,0,1-2.733.219,10.326,10.326,0,0,1-3.749-.609,6.588,6.588,0,0,1-4.061-4.343,11.222,11.222,0,0,1-.469-3.327,11.785,11.785,0,0,1,.453-3.327,7.5,7.5,0,0,1,1.39-2.686,6.716,6.716,0,0,1,2.359-1.812,7.789,7.789,0,0,1,3.358-.672,7.024,7.024,0,0,1,2.905.562,5.908,5.908,0,0,1,2.093,1.546A6.72,6.72,0,0,1,69.132,18.1a9.6,9.6,0,0,1,.438,2.953q0,.438-.032.921-.026.414-.062.828h-10.9Zm14.4-8.779q.326-.059.656-.094c.208-.02.427-.031.656-.031s.458.011.687.031a5.155,5.155,0,0,1,.625.094q.093.469.187,1.234a10.975,10.975,0,0,1,.094,1.3,6.472,6.472,0,0,1,1.733-1.843,4.6,4.6,0,0,1,2.765-.781q.25,0,.515.016c.152.008.3.023.453.046a5.073,5.073,0,0,1,.094.594q.031.312.031.656a6.831,6.831,0,0,1-.047.781q-.045.392-.109.781a2.152,2.152,0,0,0-.516-.062h-.422a5.474,5.474,0,0,0-1.609.234A3.366,3.366,0,0,0,77.4,17.8a4.117,4.117,0,0,0-.968,1.625,8.2,8.2,0,0,0-.359,2.655v7.966a7.6,7.6,0,0,1-.766.094q-.421.031-.765.031-.383,0-.766-.031-.4-.029-.8-.093V14.026ZM51.051,5.468a3.105,3.105,0,0,1-.2,1.095,3.109,3.109,0,0,1-1.095.2h0a3.106,3.106,0,0,1-1.1-.2,3.1,3.1,0,0,1-.2-1.095v0a3.1,3.1,0,0,1,.2-1.095,3.1,3.1,0,0,1,1.1-.2h0a3.094,3.094,0,0,1,1.095.2,3.1,3.1,0,0,1,.2,1.095v0h0ZM54.868,4.6H51.841l2.14-2.14a5.207,5.207,0,0,0-1.222-1.222l-2.14,2.14V.352A5.21,5.21,0,0,0,49.757.28h-.006a5.194,5.194,0,0,0-.861.072V3.379l-2.141-2.14a5.179,5.179,0,0,0-.662.56h0a5.218,5.218,0,0,0-.559.662L47.668,4.6H44.641s-.072.569-.072.863v0a5.187,5.187,0,0,0,.072.862h3.028L45.527,8.47A5.223,5.223,0,0,0,46.75,9.692l2.141-2.14V10.58a5.234,5.234,0,0,0,.86.072h.007a5.232,5.232,0,0,0,.86-.072V7.552l2.141,2.141a5.226,5.226,0,0,0,.662-.56h0a5.237,5.237,0,0,0,.559-.662L51.841,6.33h3.028a5.206,5.206,0,0,0,.072-.861V5.462a5.212,5.212,0,0,0-.072-.86h0ZM0,29.615,8.435,16.493H1a7.655,7.655,0,0,1-.093-1.249A7.438,7.438,0,0,1,1,14.025H13.027l.156.407-8.5,13.152h7.966a8.631,8.631,0,0,1,.094,1.28,7.223,7.223,0,0,1-.094,1.187H.156L0,29.614Zm24.335-7.092q-.469-.062-1.187-.125t-1.218-.062a5.082,5.082,0,0,0-2.952.719,2.5,2.5,0,0,0-1.015,2.187,2.685,2.685,0,0,0,.343,1.468,2.363,2.363,0,0,0,.859.812,2.975,2.975,0,0,0,1.14.344q.624.062,1.187.062a14.6,14.6,0,0,0,1.484-.078,8.9,8.9,0,0,0,1.359-.234V22.523Zm0-3.03a3.049,3.049,0,0,0-.937-2.562,4.4,4.4,0,0,0-2.718-.719,11.54,11.54,0,0,0-2.046.172,15.654,15.654,0,0,0-1.859.453,4.862,4.862,0,0,1-.593-2.468,14.381,14.381,0,0,1,2.342-.531,17.024,17.024,0,0,1,2.468-.188,7.011,7.011,0,0,1,4.748,1.422,5.746,5.746,0,0,1,1.625,4.546V29.646q-1.094.25-2.655.515a19.027,19.027,0,0,1-3.186.266,12.467,12.467,0,0,1-2.765-.281,5.644,5.644,0,0,1-2.093-.906,4.2,4.2,0,0,1-1.328-1.593,5.344,5.344,0,0,1-.468-2.343A4.775,4.775,0,0,1,16.9,21.258a6.619,6.619,0,0,1,2.155-1,9.807,9.807,0,0,1,2.562-.328q1,0,1.64.047t1.078.109v-.594Zm9.5,7.934a6.13,6.13,0,0,0,1.219.313,11.318,11.318,0,0,0,1.625.094,5.713,5.713,0,0,0,2.061-.359,4.093,4.093,0,0,0,1.609-1.109,5.42,5.42,0,0,0,1.062-1.89,8.358,8.358,0,0,0,.391-2.7,7.413,7.413,0,0,0-.922-3.967,3.287,3.287,0,0,0-3.015-1.468,4.069,4.069,0,0,0-1.5.281,3.7,3.7,0,0,0-1.281.843,4.167,4.167,0,0,0-.906,1.422,5.489,5.489,0,0,0-.344,2.046v6.5h0Zm-3.093-13.4q.318-.063.64-.094t.672-.031c.208,0,.426.011.656.031a6.5,6.5,0,0,1,.656.094,1.964,1.964,0,0,1,.078.391q.046.328.094.7c.031.25.062.49.094.719s.047.375.047.438a6.345,6.345,0,0,1,.75-.968,5.008,5.008,0,0,1,1.047-.843,5.475,5.475,0,0,1,1.374-.594,6.19,6.19,0,0,1,1.7-.219,7.125,7.125,0,0,1,2.609.469,5.22,5.22,0,0,1,2.061,1.453,6.988,6.988,0,0,1,1.343,2.5,11.808,11.808,0,0,1,.484,3.577A8.932,8.932,0,0,1,42.812,28.1a8.355,8.355,0,0,1-6.326,2.327,10.876,10.876,0,0,1-1.406-.094,8.352,8.352,0,0,1-1.25-.25v7.341q-.4.064-.8.094-.422.031-.766.031-.383,0-.765-.031a7.547,7.547,0,0,1-.765-.094v-23.4Z" transform="translate(37.073 15.737)" fill="rgba(147,156,188,0.6)"/>
  </g>
</svg>
