<svg xmlns="http://www.w3.org/2000/svg" xmlns:xlink="http://www.w3.org/1999/xlink" width="224" height="114" viewBox="0 0 224 114">
  <defs>
    <filter id="Rectangle_21" x="0" y="0" width="224" height="114" filterUnits="userSpaceOnUse">
      <feOffset input="SourceAlpha"/>
      <feGaussianBlur stdDeviation="7.5" result="blur"/>
      <feFlood flood-opacity="0.161"/>
      <feComposite operator="in" in2="blur"/>
      <feComposite in="SourceGraphic"/>
    </filter>
  </defs>
  <g id="Group_156" data-name="Group 156" transform="translate(22.5 22.5)">
    <g transform="matrix(1, 0, 0, 1, -22.5, -22.5)" filter="url(#Rectangle_21)">
      <rect id="Rectangle_21-2" data-name="Rectangle 21" width="179" height="69" rx="5" transform="translate(22.5 22.5)" fill="#f8f8f8"/>
    </g>
    <path id="Webflow_logo_2_" data-name="Webflow_logo (2)" d="M33.872,10.317c0-1.882-1.83-3.88-5-3.88-3.556,0-7.462,2.609-8.059,7.813-.61,5.256,2.66,7.592,5.957,7.592a8.767,8.767,0,0,0,6.787-3,3,3,0,0,0-3.854-.831,3.945,3.945,0,0,1-2.037.493c-1.272,0-2.57-.571-2.57-2.946C33.249,14.756,33.872,12.2,33.872,10.317Zm-4.036.311c-.052.584-.286,1.583-4.412,2.141.87-3.089,2.531-3.322,3.3-3.322A1.078,1.078,0,0,1,29.836,10.629Zm-13.808.506s-1.752,5.5-1.895,5.957C14.081,16.624,12.8,6.748,12.8,6.748c-2.985,0-4.581,2.128-5.425,4.373,0,0-2.128,5.515-2.31,5.983-.013-.428-.324-5.918-.324-5.918A4.877,4.877,0,0,0,0,6.761L2.466,21.725c3.128-.013,4.815-2.128,5.7-4.373,0,0,1.882-4.867,1.96-5.087.013.208,1.35,9.461,1.35,9.461,3.141,0,4.828-1.986,5.736-4.153l4.4-10.81C18.506,6.761,16.871,8.877,16.027,11.135ZM45.4,6.411a5.944,5.944,0,0,0-4.659,2.6V8.994L41.853,0c-2.57,0-4.659,2.232-5.061,5.554L34.845,21.608a4.9,4.9,0,0,0,3.893-1.518,4.311,4.311,0,0,0,3.556,1.752c4.335,0,7.306-5.035,7.306-9.759C49.575,7.774,47.485,6.411,45.4,6.411Zm-.4,7.722c-.454,2.634-1.921,4.425-3.335,4.425a2.877,2.877,0,0,1-2.037-.636,18.449,18.449,0,0,1,.96-4.944c.519-1.22,1.752-3.167,3.037-3.167C44.877,9.811,45.448,11.485,44.993,14.133Zm15.43-7.371H57.4l.013-.156c.208-1.973.675-3.011,2.219-3.18A1.619,1.619,0,0,0,61.267,2.18c.091-.467.376-2.089.376-2.089-6.074-.039-7.981,2.583-8.474,6.58l-.013.091h-.065a2.75,2.75,0,0,0-2.258,2.531l-.065.519h2.025l-1.7,14.042-.519,2.518c.065,0,.143.013.208.013,2.842-.1,4.659-2.349,5.061-5.606L57.167,9.811h.947a2.594,2.594,0,0,0,2.219-2.492ZM76.153,6.5a8.3,8.3,0,0,0-7.8,6.606c-1.012,4.036.519,8.812,5.658,8.812s8.085-4.97,8.085-9.11C82.1,8.7,79.306,6.5,76.153,6.5ZM77.567,14c-.182,1.83-.986,4.607-3.192,4.607s-1.908-3.244-1.687-4.789c.234-1.648,1.155-4,3.141-4C77.606,9.824,77.775,11.939,77.567,14Zm21.776-2.868s-1.752,5.5-1.895,5.957c-.052-.467-1.337-10.343-1.337-10.343-2.985,0-4.581,2.128-5.425,4.373,0,0-2.128,5.516-2.31,5.983-.013-.428-.324-5.918-.324-5.918a4.877,4.877,0,0,0-4.737-4.425l2.453,14.963c3.128-.013,4.815-2.128,5.7-4.373,0,0,1.882-4.867,1.947-5.087.026.208,1.35,9.461,1.35,9.461,3.141,0,4.828-1.986,5.736-4.153l4.4-10.81C101.81,6.761,100.174,8.877,99.344,11.135ZM63.279.091,60.735,20.608h0l-.519,2.531c.065,0,.143.013.208.013h0c2.738-.039,4.685-2.44,5.048-5.464L66.939,5.918C67.38,2.323,65.239.091,63.279.091Z" transform="translate(36.661 20.882)" fill="rgba(147,156,188,0.6)"/>
  </g>
</svg>
