<svg width="24" height="24" viewBox="0 0 24 24" fill="none" xmlns="http://www.w3.org/2000/svg"><rect width="24" height="24" fill="none" rx="0" ry="0"></rect><path fill-rule="evenodd" clip-rule="evenodd" d="M10.5002 18.0002C12.2032 18.0002 13.7736 17.4327 15.0325 16.4764L19.2633 20.7071C19.6538 21.0976 20.287 21.0976 20.6775 20.7071L20.7071 20.6775C21.0976 20.287 21.0976 19.6538 20.7071 19.2633L16.4764 15.0326C17.4327 13.7736 18.0002 12.2032 18.0002 10.5002C18.0002 6.35811 14.6424 3.00024 10.5002 3.00024C6.35811 3.00024 3.00024 6.35811 3.00024 10.5002C3.00024 14.6424 6.35811 18.0002 10.5002 18.0002ZM12.2301 6.73032C11.8101 6.30032 11.2501 6.08032 10.5601 6.08032C9.88014 6.08032 9.31014 6.29032 8.85014 6.71032C8.39014 7.14032 8.16014 7.70032 8.15014 8.38032L8.14014 8.83032H9.33014L9.34014 8.39032C9.35014 8.04032 9.45014 7.77032 9.66014 7.56032C9.87014 7.35032 10.1601 7.25032 10.5601 7.25032C10.9201 7.25032 11.1901 7.34032 11.3701 7.54032C11.5601 7.74032 11.6601 8.03032 11.6601 8.40032C11.6601 8.62032 11.6401 8.80032 11.5901 8.95032C11.5501 9.09032 11.4801 9.23032 11.3801 9.37032C11.2701 9.52032 11.0601 9.73032 10.7601 9.99032C10.4001 10.3203 10.1401 10.6403 10.0001 10.9403C9.86014 11.2403 9.78014 11.6203 9.77014 12.0603L9.76014 12.5203H10.9601V12.0703C10.9601 11.5403 11.1301 11.1603 11.5201 10.8703C12.0301 10.4203 12.3701 10.0303 12.5601 9.67032C12.7601 9.30032 12.8601 8.88032 12.8601 8.41032C12.8601 7.72032 12.6501 7.15032 12.2301 6.73032ZM10.9603 13.7202H9.76025V14.9202H10.9603V13.7202Z" fill="#939cbc"></path></svg>