<?xml version="1.0" encoding="UTF-8"?>
<svg width="120px" height="34px" viewBox="0 0 120 34" version="1.1" xmlns="http://www.w3.org/2000/svg" xmlns:xlink="http://www.w3.org/1999/xlink">
    <title>Logo intrro svg white</title>
    <g id="DESIGN" stroke="none" stroke-width="1" fill="none" fill-rule="evenodd">
        <g id="CR-1-LANDING" transform="translate(-78.000000, -30.000000)" fill="#FFFFFF">
            <g id="NAV" transform="translate(78.000000, 28.000000)">
                <g id="Group-2">
                    <g id="Logo-intrro-svg-white" transform="translate(0.000000, 2.000000)">
                        <path d="M16.847767,-2.84217094e-14 C7.54300221,-2.84217094e-14 1.13686838e-13,7.54300221 1.13686838e-13,16.847767 C1.13686838e-13,26.1525318 7.54300221,33.695534 16.847767,33.695534 C26.1525318,33.695534 33.695534,26.1525318 33.695534,16.847767 C33.695534,7.54300221 26.1525318,-2.84217094e-14 16.847767,-2.84217094e-14 L16.847767,-2.84217094e-14 Z M19.1382524,11.8834951 C19.4721274,11.5381605 19.9318909,11.3431605 20.412233,11.3431605 C20.8925751,11.3431605 21.3523387,11.5381605 21.6862136,11.8834951 C22.3897883,12.6106839 22.3897883,13.7648501 21.6862136,14.4920388 C21.3523387,14.8373735 20.8925751,15.0323735 20.412233,15.0323735 C19.9318909,15.0323735 19.4721274,14.8373735 19.1382524,14.4920388 C18.4321333,13.764341 18.4326495,12.6070677 19.1394175,11.88 L19.1382524,11.8834951 Z M6.93436893,19.078835 C6.53734689,18.8081933 6.26724896,18.3879283 6.1859777,17.9143584 C6.10470644,17.4407886 6.21922991,16.9545171 6.50330097,16.5669903 L13.4935922,6.92504854 C14.090791,6.10846578 15.2281942,5.91305516 16.0636893,6.48349515 C16.4603693,6.75412951 16.7302288,7.17416745 16.8114882,7.6474484 C16.8927476,8.12072935 16.7784483,8.60672496 16.4947573,8.99417476 L9.50446602,18.6361165 C8.9076238,19.453092 7.77016138,19.6490284 6.93436893,19.078835 L6.93436893,19.078835 Z M10.8209709,23.0062136 C10.1175395,22.2794187 10.1175395,21.1256298 10.8209709,20.398835 L15.528932,15.5790291 C15.8629703,15.2339948 16.3226728,15.0392049 16.8029126,15.0392049 C17.2831524,15.0392049 17.7428549,15.2339948 18.0768932,15.5790291 C18.7804679,16.3062179 18.7804679,17.460384 18.0768932,18.1875728 L13.368932,23.0062136 C13.0349416,23.3526508 12.5744194,23.5483584 12.0932039,23.5483584 C11.6119884,23.5483584 11.1514662,23.3526508 10.8174757,23.0062136 L10.8209709,23.0062136 Z M26.7728155,20.2100971 L17.1308738,27.2003883 C16.743424,27.4840794 16.2574284,27.5983786 15.7841474,27.5171193 C15.3108665,27.4358599 14.8908285,27.1660003 14.6201942,26.7693204 C14.0496268,25.9334598 14.2450131,24.7956825 15.0617476,24.1980583 L24.7036893,17.207767 C25.0913265,16.9240199 25.5775022,16.8096934 26.050971,16.8909473 C26.5244399,16.9722012 26.9446803,17.2420815 27.215534,17.638835 C27.7849893,18.4755196 27.5874751,19.6131606 26.7693204,20.208932 L26.7728155,20.2100971 Z" id="Path_14" fill-rule="nonzero"></path>
                        <g id="Group_33" transform="translate(40.109126, 7.321165)">
                            <path d="M3.11883495,0 C2.17875855,-0.00704326039 1.36500271,0.651859504 1.17635207,1.57283952 C0.987701437,2.49381954 1.47685453,3.41960605 2.34398917,3.78274619 C3.21112381,4.14588633 4.21401067,3.84493888 4.73793888,3.06436699 C5.26186709,2.28379509 5.16048015,1.24164726 4.49592233,0.576699029 C4.13566546,0.203367784 3.63761634,-0.00520608582 3.11883495,0 Z" id="Path_15"></path>
                            <path d="M3.11883495,5.23572816 C2.69630862,5.22466724 2.28704106,5.38375688 1.98291262,5.67728155 C1.67146214,5.98047688 1.50226711,6.40092654 1.5168932,6.83533981 L1.5168932,17.3662136 C1.52635349,18.0144572 1.92097493,18.5947807 2.52035037,18.8418805 C3.11972581,19.0889803 3.80867446,18.9553717 4.27223301,18.5021359 C4.56575768,18.1980075 4.72484733,17.7887399 4.71378641,17.3662136 L4.71378641,6.83533981 C4.73357051,6.40564528 4.57152572,5.98747749 4.26736392,5.68331569 C3.96320213,5.37915389 3.54503434,5.2171091 3.11533981,5.2368932 L3.11883495,5.23572816 Z" id="Path_16"></path>
                            <path d="M20.1425243,5.85669903 C19.185228,5.35169501 18.1163931,5.09530283 17.0341748,5.11106796 C15.9868634,5.09741477 14.953291,5.35039546 14.0306796,5.84621359 C13.7875524,5.97934061 13.5539791,6.12921683 13.3316505,6.29475728 C13.2612626,6.0604526 13.1335204,5.84741538 12.96,5.67495146 C12.311885,5.08364737 11.3199597,5.08364737 10.6718447,5.67495146 C10.360822,5.97795271 10.191676,6.39785773 10.2058252,6.83184466 L10.2058252,17.3860194 C10.2148429,18.0347657 10.6096506,18.6157033 11.2095218,18.8629029 C11.8093929,19.1101026 12.4988665,18.9759843 12.9623301,18.5219417 C13.2558548,18.2178133 13.4149444,17.8085457 13.4038835,17.3860194 L13.4038835,10.7114563 C13.3936208,10.2383992 13.5344165,9.77438565 13.8058252,9.38679612 C14.0970153,8.97956662 14.4860644,8.65222045 14.9370874,8.43495146 C15.4427624,8.18923855 15.9990138,8.06553846 16.561165,8.07378641 C17.1668683,8.06188705 17.7671946,8.18944642 18.3157282,8.44660194 C18.8100479,8.69025419 19.2187498,9.07823664 19.487767,9.5592233 C19.8087025,10.1763526 19.9617785,10.8670026 19.9316505,11.5619417 L19.9316505,17.3871845 C19.9316505,18.2699821 20.6472994,18.9856311 21.5300971,18.9856311 C22.4128948,18.9856311 23.1285437,18.2699821 23.1285437,17.3871845 L23.1285437,11.5619417 C23.1648628,10.3460812 22.8914431,9.14094949 22.3339806,8.05980583 C21.8332004,7.12801246 21.0716493,6.36241275 20.1425243,5.85669903 Z" id="Path_17"></path>
                            <path d="M34.0240777,15.8085437 L33.2190291,15.8085437 C32.8339289,15.8084927 32.4720158,15.6245058 32.2450485,15.3133981 C31.9463508,14.9332408 31.7930855,14.4589862 31.8128155,13.9759223 L31.8128155,8.5223301 L33.432233,8.5223301 C33.8254925,8.53617358 34.2088223,8.39712255 34.5017476,8.13436893 C34.7822848,7.87928924 34.9400666,7.51622136 34.9351456,7.13708738 C34.9497724,6.74098907 34.7911153,6.35817034 34.5005825,6.08854369 C34.2076573,5.82579007 33.8243274,5.68673905 33.431068,5.70058252 L31.8116505,5.70058252 L31.8116505,2.68543689 C31.8433609,2.1030953 31.550712,1.55089274 31.0510127,1.2501805 C30.5513134,0.949468266 29.9263565,0.949468266 29.4266572,1.2501805 C28.9269579,1.55089274 28.634309,2.1030953 28.6660194,2.68543689 L28.6660194,5.70058252 L27.9669903,5.70058252 C27.5733714,5.6866791 27.1896568,5.82571822 26.8963107,6.08854369 C26.6062077,6.35838148 26.4479879,6.74117145 26.4629126,7.13708738 C26.458142,7.5161911 26.6158981,7.87919997 26.8963107,8.13436893 C27.1895297,8.39740682 27.5733329,8.53647806 27.9669903,8.5223301 L28.6660194,8.5223301 L28.6660194,13.9759223 C28.6538109,14.8528097 28.8557691,15.7194304 29.2543689,16.5005825 C29.6294351,17.2326293 30.1923423,17.8518272 30.8854369,18.2947573 C31.584874,18.7382031 32.3979069,18.9692841 33.2260194,18.96 L33.6524272,18.96 C34.109762,18.9759946 34.5573318,18.8252865 34.9118447,18.5359223 C35.2525361,18.2521 35.4465457,17.8293902 35.4396117,17.3860194 C35.4531896,16.978226 35.31211,16.5803733 35.0446602,16.272233 C34.7893584,15.9749063 34.4159595,15.805257 34.0240777,15.8085437 L34.0240777,15.8085437 Z" id="Path_18"></path>
                            <path d="M48.4497087,5.61436893 C47.7401379,5.21756136 46.9308621,5.03466503 46.1196117,5.08776699 C45.1415587,5.07932652 44.1780764,5.32501451 43.3234951,5.8007767 C43.030579,5.96397742 42.7526111,6.15266811 42.4928155,6.36466019 C42.44472,6.09168482 42.3161053,5.83932404 42.1234951,5.64 C41.8066068,5.35133472 41.3862811,5.20338007 40.9584466,5.22990291 C40.5308278,5.19454169 40.1093067,5.34910017 39.8059024,5.65250438 C39.5024982,5.95590859 39.3479398,6.37742977 39.383301,6.80504854 L39.383301,17.3836893 C39.3577213,17.8145841 39.5126325,18.2366854 39.8108738,18.5487379 C40.1246369,18.8304813 40.5373317,18.9762862 40.9584466,18.9541748 C41.3893414,18.9797544 41.8114427,18.8248432 42.1234951,18.5266019 C42.4051701,18.2132628 42.5509879,17.8009503 42.528932,17.3801942 L42.528932,10.4702913 C42.5055147,9.90387416 42.71618,9.35277378 43.1114563,8.94640777 C43.5836575,8.497394 44.1777306,8.19752078 44.8194175,8.08427184 C45.6641255,7.9249792 46.5325461,7.94084077 47.3708738,8.13087379 C47.6084812,8.18903322 47.85545,8.19815084 48.096699,8.1576699 C48.3383405,8.11430882 48.5633109,8.00504901 48.7467961,7.84194175 C48.948634,7.65675511 49.0858259,7.41176963 49.1382524,7.14291262 C49.296163,6.53492616 49.0096937,5.89897407 48.4497087,5.61436893 Z" id="Path_19"></path>
                            <path d="M61.7254369,5.61436893 C61.015866,5.21756136 60.2065902,5.03466503 59.3953398,5.08776699 C58.4172739,5.07921975 57.4537648,5.32491458 56.5992233,5.8007767 C56.3063071,5.96397742 56.0283392,6.15266811 55.7685437,6.36466019 C55.7205164,6.09166199 55.591892,5.83928224 55.3992233,5.64 C55.082335,5.35133472 54.6620093,5.20338007 54.2341748,5.22990291 C53.806556,5.19454169 53.3850348,5.34910017 53.0816306,5.65250438 C52.7782264,5.95590859 52.6236679,6.37742977 52.6590291,6.80504854 L52.6590291,17.3836893 C52.6334495,17.8145841 52.7883606,18.2366854 53.0866019,18.5487379 C53.4003651,18.8304813 53.8130599,18.9762862 54.2341748,18.9541748 C54.6650695,18.9797544 55.0871708,18.8248432 55.3992233,18.5266019 C55.6808982,18.2132628 55.826716,17.8009503 55.8046602,17.3801942 L55.8046602,10.4702913 C55.7812429,9.90387416 55.9919081,9.35277378 56.3871845,8.94640777 C56.8593454,8.49733693 57.4534368,8.19745454 58.0951456,8.08427184 C58.9398537,7.9249792 59.8082742,7.94084077 60.6466019,8.13087379 C60.8842139,8.18900077 61.131176,8.19811815 61.3724272,8.1576699 C61.6141065,8.11442508 61.839107,8.00515064 62.0225243,7.84194175 C62.2248867,7.65717072 62.3621825,7.4119997 62.4139806,7.14291262 C62.5718912,6.53492616 62.2854219,5.89897407 61.7254369,5.61436893 Z" id="Path_20"></path>
                            <path d="M77.256699,8.49320388 C76.6776848,7.46403946 75.8295168,6.61184412 74.8031068,6.02796117 C72.573843,4.83909385 69.8987783,4.83909385 67.6695146,6.02796117 C66.6428887,6.61156162 65.794653,7.46382496 65.2159223,8.49320388 C64.0279522,10.7470205 64.0279522,13.4417173 65.2159223,15.695534 C65.794511,16.7250203 66.6427806,17.5773177 67.6695146,18.1607767 C69.9071281,19.3492467 72.5887942,19.3492467 74.8264078,18.1607767 C75.853212,17.5787221 76.6997398,16.7249384 77.2730097,15.6932039 C78.44871,13.4360755 78.4439221,10.7461327 77.2601942,8.49320388 L77.256699,8.49320388 Z M71.2485437,16.1394175 C70.5537838,16.1538166 69.8684961,15.976448 69.2679612,15.6267961 C68.6991726,15.2853317 68.2330771,14.7966962 67.918835,14.2124272 C67.5777484,13.5632089 67.4069824,12.8380548 67.4225243,12.1048544 C67.4079566,11.3671567 67.5790214,10.6376278 67.92,9.98330097 C68.2315116,9.39500083 68.6975485,8.90278208 69.2679612,8.55961165 C70.4962413,7.87640183 71.9903606,7.87640183 73.2186408,8.55961165 C73.7858532,8.90081932 74.2475577,9.3923633 74.5526214,9.97980583 C74.886697,10.6371074 75.0539414,11.366501 75.0396117,12.1036893 C75.0550839,12.83639 74.888134,13.5614409 74.5537864,14.2135922 C74.2462731,14.7972307 73.7844443,15.285254 73.2186408,15.624466 C72.6214466,15.9733096 71.9400685,16.1518137 71.2485437,16.1405825 L71.2485437,16.1394175 Z" id="Path_21" fill-rule="nonzero"></path>
                        </g>
                    </g>
                </g>
            </g>
        </g>
    </g>
</svg>