<svg xmlns="http://www.w3.org/2000/svg" width="4008.595" height="1180.275" viewBox="0 0 4008.595 1180.275">
  <g id="Group_148" data-name="Group 148" transform="translate(-43.405 143)">
    <path id="Path_7" data-name="Path 7" d="M255.057,7.861H0V85.017H84.5V318.905h86.066V85.017h84.493Zm425.327,0L630.937,187.271,555.508,9.4H525.857l-74.1,177.736L401.3,7.861h-92.02l97.384,311.045h75.428l58.525-150.132L600.29,318.905h75.433L771.636,7.861ZM994.042,326.77c99.734,0,170.83-68.065,170.83-163.383S1093.776,0,994.042,0C894.05,0,822.7,68.323,822.7,163.387S894.05,326.775,994.042,326.775Zm0-79.734c-47.346,0-82.125-35.224-82.125-83.644S946.7,79.747,994.042,79.747s81.609,34.97,81.609,83.649-34.268,83.644-81.609,83.644Z" transform="translate(535.363 1037.276) rotate(-90)" fill="#fff"/>
    <path id="Path_8" data-name="Path 8" d="M126.284,239.113,240.931,27.225V7.861H7.554v79.8H115.242L0,301.078v17.827H246.263V239.113Zm246.805,5.465V198.016H475.25V127.728H373.089V81.934H486.8V7.861H287.774V318.905H490.562V244.579Zm333.858,74.326h95.642l-61.76-113.123c30.727-18.4,49.372-49.674,49.372-87.844,0-65.022-48.607-110.079-115.664-110.079H539.721V318.905h85.693V223.735h31.069Zm-81.534-234.9h39.143c23.955,0,37.743,14.233,37.743,33.673s-13.788,33.868-37.743,33.868H625.413Zm367.1,242.762c99.734,0,170.83-68.065,170.83-163.383S1092.252,0,992.517,0C892.525,0,821.172,68.323,821.172,163.387s71.354,163.387,171.346,163.387Zm0-79.734c-47.345,0-82.125-35.224-82.125-83.644s34.779-83.644,82.125-83.644,81.609,34.97,81.609,83.649-34.268,83.644-81.609,83.644Z" transform="translate(43.405 1035.529) rotate(-90)" fill="#fff"/>
    <path id="Path_6" data-name="Path 6" d="M-90.076-73.15V189.921H82.011v897.793H394.746V-73.15Z" transform="translate(1109.774 -56.361)" fill="#fff"/>
    <path id="Path_9" data-name="Path 9" d="M587.176,0c324.289,0,587.176,262.888,587.176,587.176s-262.888,587.176-587.176,587.176S0,911.465,0,587.176,262.888,0,587.176,0Z" transform="translate(1608.077 -143)" fill="#fff"/>
    <path id="Path_1" data-name="Path 1" d="M587.176,0c324.289,0,587.176,262.888,587.176,587.176s-262.888,587.176-587.176,587.176S0,911.465,0,587.176,262.888,0,587.176,0Z" transform="translate(2877.647 -143)" fill="#fff"/>
  </g>
</svg>
