<svg xmlns="http://www.w3.org/2000/svg" width="4014.595" height="1182.042" viewBox="0 0 4014.595 1182.042">
  <g id="Group_31" data-name="Group 31" transform="translate(-43.405 143)">
    <path id="Path_7" data-name="Path 7" d="M255.439,7.872H0V85.145H84.624V319.383h86.195V85.145h84.62Zm425.964,0L631.881,187.552,556.34,9.412h-29.7l-74.211,178L401.9,7.872H309.744l97.529,311.51h75.541l58.613-150.357,59.761,150.357h75.546L772.791,7.872ZM995.529,327.259c99.884,0,171.086-68.167,171.086-163.627S1095.413,0,995.529,0c-100.142,0-171.6,68.425-171.6,163.632s71.46,163.632,171.6,163.632Zm0-79.853c-47.416,0-82.247-35.276-82.247-83.77s34.831-83.77,82.247-83.77,81.732,35.023,81.732,83.774-34.319,83.77-81.732,83.77Z" transform="translate(536.1 1039.042) rotate(-90)" fill="#000229"/>
    <path id="Path_8" data-name="Path 8" d="M126.473,239.471,241.292,27.266V7.872H7.565V87.788H115.415L0,301.529v17.854H246.632V239.471Zm247.175,5.474V198.312H475.961V127.92H373.648V82.056H487.532V7.872H288.2v311.51H491.3V244.945Zm334.357,74.438H803.79L741.938,206.091c30.773-18.424,49.446-49.748,49.446-87.975C791.383,53,742.7,7.872,675.546,7.872H540.528v311.51h85.821V224.069h31.115ZM626.349,84.135h39.2c23.991,0,37.8,14.254,37.8,33.723s-13.809,33.919-37.8,33.919h-39.2ZM994,327.259c99.884,0,171.086-68.167,171.086-163.627S1093.887,0,994,0C893.861,0,822.4,68.425,822.4,163.632S893.861,327.264,994,327.264Zm0-79.853c-47.416,0-82.248-35.276-82.248-83.77S946.587,79.867,994,79.867s81.732,35.023,81.732,83.774-34.32,83.77-81.732,83.77Z" transform="translate(43.405 1037.293) rotate(-90)" fill="#000229"/>
    <path id="Path_6" data-name="Path 6" d="M-90.076-73.15V190.315H82.269v899.137h313.2V-73.15Z" transform="translate(1111.235 -56.341)" fill="#000229"/>
    <path id="Path_9" data-name="Path 9" d="M588.055,0c324.774,0,588.055,263.281,588.055,588.055s-263.281,588.055-588.055,588.055S0,912.829,0,588.055,263.281,0,588.055,0Z" transform="translate(1610.418 -143)" fill="#000229"/>
    <path id="Path_1" data-name="Path 1" d="M588.055,0c324.774,0,588.055,263.281,588.055,588.055s-263.281,588.055-588.055,588.055S0,912.829,0,588.055,263.281,0,588.055,0Z" transform="translate(2881.889 -143)" fill="#000229"/>
  </g>
</svg>
