<svg xmlns="http://www.w3.org/2000/svg" xmlns:xlink="http://www.w3.org/1999/xlink" width="223.8" height="114" viewBox="0 0 223.8 114">
  <defs>
    <filter id="Rectangle_21" x="0" y="0" width="223.8" height="114" filterUnits="userSpaceOnUse">
      <feOffset input="SourceAlpha"/>
      <feGaussianBlur stdDeviation="7.5" result="blur"/>
      <feFlood flood-opacity="0.161"/>
      <feComposite operator="in" in2="blur"/>
      <feComposite in="SourceGraphic"/>
    </filter>
  </defs>
  <g id="Group_11" data-name="Group 11" transform="translate(-1210.5 -549.5)">
    <g id="Group_7" data-name="Group 7" transform="translate(1233 572)">
      <g transform="matrix(1, 0, 0, 1, -22.5, -22.5)" filter="url(#Rectangle_21)">
        <rect id="Rectangle_21-2" data-name="Rectangle 21" width="178.8" height="69" rx="5" transform="translate(22.5 22.5)" fill="#f8f8f8"/>
      </g>
    </g>
    <g id="_5ebae01e869b6a7116f8aa3d_memberstack" data-name="5ebae01e869b6a7116f8aa3d_memberstack" transform="translate(1239 591.519)">
      <path id="Path_1" data-name="Path 1" d="M446.438,62.249V73.862h-2.732V66.2l-2.61,3.815h-1.366l-2.549-3.784v7.63H434.45V62.249h3.156l2.838,4.29,2.838-4.29Zm4.494,8.119a1.944,1.944,0,0,0,.7,1.141,2.508,2.508,0,0,0,1.558.411,4.442,4.442,0,0,0,1.144-.145,6.838,6.838,0,0,0,1.251-.495l.691,2.039a5.957,5.957,0,0,1-1.581.616,8.7,8.7,0,0,1-1.873.175,5.421,5.421,0,0,1-2.587-.571,3.845,3.845,0,0,1-1.62-1.606,5.554,5.554,0,0,1,.015-4.862,3.82,3.82,0,0,1,1.535-1.552A4.462,4.462,0,0,1,452.329,65a4.038,4.038,0,0,1,3.009,1.1,4.393,4.393,0,0,1,1.09,3.219v1.05Zm1.483-3.167a1.366,1.366,0,0,0-.882.272,1.559,1.559,0,0,0-.475.937h2.622a1.4,1.4,0,0,0-.369-.922A1.271,1.271,0,0,0,452.415,67.2ZM468.221,65a3.079,3.079,0,0,1,2.4.874,4.05,4.05,0,0,1,.794,2.776v5.215H468.83V68.647a1.492,1.492,0,0,0-.267-.959,1.123,1.123,0,0,0-.92-.33,2.5,2.5,0,0,0-1.633.736q.015.169.015.552v5.215h-2.583V68.647a1.492,1.492,0,0,0-.267-.959,1.123,1.123,0,0,0-.92-.33,2.537,2.537,0,0,0-1.618.706v5.8h-2.583V65.18h2.583v.675a3.715,3.715,0,0,1,1.047-.652A3.119,3.119,0,0,1,462.832,65a2.818,2.818,0,0,1,2.7,1.3,5.048,5.048,0,0,1,1.3-.989A3.068,3.068,0,0,1,468.221,65Zm10.122-.023a4.039,4.039,0,0,1,2.035.5A3.477,3.477,0,0,1,481.77,67a6.336,6.336,0,0,1,0,4.966,3.477,3.477,0,0,1-1.392,1.52,4.038,4.038,0,0,1-2.035.5,3.742,3.742,0,0,1-2.3-.813v.557h-2.633V61h2.633v4.785A3.742,3.742,0,0,1,478.343,64.973Zm-.521,6.517a1.536,1.536,0,0,0,1.277-.54,2.51,2.51,0,0,0,.43-1.59,2.483,2.483,0,0,0-.43-1.576,1.536,1.536,0,0,0-1.277-.54,2.838,2.838,0,0,0-1.664.6v3.049A2.838,2.838,0,0,0,477.822,71.489Zm8.45-1.121a1.944,1.944,0,0,0,.7,1.141,2.508,2.508,0,0,0,1.558.411,4.443,4.443,0,0,0,1.144-.145,6.841,6.841,0,0,0,1.251-.495l.691,2.039a5.956,5.956,0,0,1-1.581.616,8.7,8.7,0,0,1-1.873.175,5.421,5.421,0,0,1-2.587-.571,3.845,3.845,0,0,1-1.62-1.606,5.554,5.554,0,0,1,.015-4.862,3.82,3.82,0,0,1,1.535-1.552A4.462,4.462,0,0,1,487.669,65a4.038,4.038,0,0,1,3.009,1.1,4.393,4.393,0,0,1,1.09,3.219v1.05Zm1.243-3.167a1.366,1.366,0,0,0-.882.272,1.559,1.559,0,0,0-.475.937h2.622a1.4,1.4,0,0,0-.369-.922A1.271,1.271,0,0,0,487.514,67.2Zm11-2.205v2.362h-.352a4.029,4.029,0,0,0-2.356.844v5.66h-2.662V65.18H495.8v.767a4.416,4.416,0,0,1,1.14-.713A3.145,3.145,0,0,1,498.159,65Zm5.584,9.116a11.4,11.4,0,0,1-2.233-.205,8.337,8.337,0,0,1-1.977-.661V70.784a8.833,8.833,0,0,0,4.21,1.018,2.229,2.229,0,0,0,1.305-.3.951.951,0,0,0,.415-.805.848.848,0,0,0-.37-.752,4.8,4.8,0,0,0-1.32-.509l-1.026-.289a8.579,8.579,0,0,1-1.569-.6,2.955,2.955,0,0,1-1.6-2.788,3.369,3.369,0,0,1,1.079-2.7,4.526,4.526,0,0,1,3.041-.927,8.957,8.957,0,0,1,2.067.213,9.444,9.444,0,0,1,1.826.653v2.37a8.076,8.076,0,0,0-3.893-.927,1.733,1.733,0,0,0-1.117.273.987.987,0,0,0-.317.79.916.916,0,0,0,.151.555,1.107,1.107,0,0,0,.468.342,8.517,8.517,0,0,0,.951.319l1.041.289a8.646,8.646,0,0,1,1.66.638,3.058,3.058,0,0,1,1.154,1.079,3.339,3.339,0,0,1,.46,1.838,3.215,3.215,0,0,1-1.185,2.606A4.972,4.972,0,0,1,504.094,74.112Zm9.132-6.337V70.7a1.179,1.179,0,0,0,.163.713.714.714,0,0,0,.591.207,2.859,2.859,0,0,0,.872-.123v2.27q-.5.107-.851.161a4.888,4.888,0,0,1-.746.054,2.8,2.8,0,0,1-1.96-.6,2.233,2.233,0,0,1-.643-1.718v-3.9H509.5V65.413h1.153V62.5h2.574v2.914h1.893v2.362Zm6.677-2.654a5.58,5.58,0,0,1,2.52.452,2.293,2.293,0,0,1,1.151,1.2,5.43,5.43,0,0,1,.285,1.914v5.1h-2.617v-.7a3.465,3.465,0,0,1-1.038.7,2.984,2.984,0,0,1-1.128.207,3.168,3.168,0,0,1-2.264-.773,2.814,2.814,0,0,1-.82-2.151,2.735,2.735,0,0,1,.835-2.144,3.356,3.356,0,0,1,2.325-.75,4.378,4.378,0,0,1,2.091.459,1.845,1.845,0,0,0-.128-.681.786.786,0,0,0-.451-.391,2.731,2.731,0,0,0-.985-.138h-1.715v-2.3Zm-.038,6.743a2.591,2.591,0,0,0,1.622-.706v-.814a3.343,3.343,0,0,0-1.47-.353,1.344,1.344,0,0,0-.849.238.871.871,0,0,0-.3.729.846.846,0,0,0,.257.706A1.2,1.2,0,0,0,519.866,71.864Zm10.013,2.248a4.325,4.325,0,0,1-3.266-1.21,4.717,4.717,0,0,1-1.129-3.371,4.639,4.639,0,0,1,1.129-3.34A4.356,4.356,0,0,1,529.879,65a8.247,8.247,0,0,1,1.327.091,5.328,5.328,0,0,1,1.144.335v2.4a4.709,4.709,0,0,0-1.061-.38,5.264,5.264,0,0,0-1.105-.106,1.865,1.865,0,0,0-1.481.563,2.46,2.46,0,0,0-.458,1.613,2.717,2.717,0,0,0,.443,1.674,1.672,1.672,0,0,0,1.419.578,3.387,3.387,0,0,0,1.061-.167,4.733,4.733,0,0,0,1.061-.517l.747,2.192A5.934,5.934,0,0,1,529.879,74.112Zm7.727-3.123-.707.745v2.128h-2.673V61H536.9v7.435l2.719-2.873h3.2l-3.458,3.618,3.734,4.683h-3.2Z" transform="translate(-376.291 -52.814)" fill="#939cbc" fill-rule="evenodd"/>
      <path id="Path_2" data-name="Path 2" d="M226,80.631,231.313,92.6a4.792,4.792,0,1,1-8.752,3.905l-4.3-9.676-.02.048-1.874-6.247Z" transform="translate(-187.33 -69.829)" fill="#939cbc"/>
      <path id="Path_3" data-name="Path 3" d="M232.223,88.127l1.1,2.5a6.378,6.378,0,0,0-2.121-.361,6.474,6.474,0,0,0-6.293,5.074l-.994-2.261L222.862,95.6V88.127Z" transform="translate(-192.948 -76.292)" fill="#939cbc"/>
      <path id="Path_4" data-name="Path 4" d="M41.24,10.359v8.452H32.315l-.925-2.061-.882,2.061H20.636V17.378l6.187-14.46a4.87,4.87,0,0,1,8.89-.077l4.476,9.974Z" transform="translate(-17.889 0)" fill="#939cbc"/>
      <path id="Path_5" data-name="Path 5" d="M108.425,12.848l.006.014,4.232-9.933a4.859,4.859,0,0,1,8.884-.077L126.7,14.375a5.938,5.938,0,0,0-9.451,2.478l-.018-.041L113.07,26.57a5.041,5.041,0,0,1-9.1-.074L99.655,16.85a7.433,7.433,0,0,0,8.77-4Z" transform="translate(-86.271 0)" fill="#939cbc"/>
      <path id="Path_6" data-name="Path 6" d="M25.847,100.4l-3.123,7.238a6.075,6.075,0,0,1-2.505.535,5.9,5.9,0,0,1-5.946-5.381l2.144-4.967a6.016,6.016,0,0,1,9.432,2.575Z" transform="translate(-12.381 -83.526)" fill="#939cbc"/>
      <path id="Path_7" data-name="Path 7" d="M12.675,108.995l-3.21,7.543a4.807,4.807,0,0,1-8.853-3.748l3.565-8.375a6.12,6.12,0,0,1,8.5,4.581Z" transform="translate(-0.228 -89.962)" fill="#939cbc"/>
    </g>
  </g>
</svg>
