<svg width="24" height="24" viewBox="0 0 24 24" fill="none" xmlns="http://www.w3.org/2000/svg"><rect width="24" height="24" fill="none" rx="0" ry="0"></rect><path fill-rule="evenodd" clip-rule="evenodd" d="M22 12C22 17.5228 17.5228 22 12 22C6.47715 22 2 17.5228 2 12C2 6.47715 6.47715 2 12 2C17.5228 2 22 6.47715 22 12ZM17.26 9.10005C17.45 9.02005 17.66 9.04005 17.83 9.15005C18 9.26005 18.1 9.45005 18.1 9.64005V14.34C18.1 14.54 18 14.73 17.83 14.84C17.73 14.91 17.61 14.94 17.5 14.94C17.42 14.94 17.34 14.92 17.26 14.89L15.4 14.07V14.6C15.4 15.21 14.91 15.7 14.3 15.7H7.00002C6.39002 15.7 5.90002 15.21 5.90002 14.6V9.40005C5.90002 8.79005 6.39002 8.30005 7.00002 8.30005H14.3C14.91 8.30005 15.4 8.79005 15.4 9.40005V9.93005L17.26 9.10005Z" fill="#939cbc"></path></svg>